<svg width="32" height="32" viewBox="0 0 32 32" fill="none" xmlns="http://www.w3.org/2000/svg">
<path d="M3 3V29C3 30.6569 4.34315 32 6 32H26C27.6569 32 29 30.6569 29 29V12L17 0H6C4.34315 0 3 1.34315 3 3Z" fill="#FF6860"/>
<path d="M17 0L29 12H20C18.3431 12 17 10.6569 17 9V0Z" fill="#D93531"/>
<path d="M12.9238 23.5449H10.9658L10.585 25H9.06641L11.2881 17.8906H12.6016L14.8379 25H13.3047L12.9238 23.5449ZM11.2783 22.3486H12.6064L11.9424 19.8145L11.2783 22.3486ZM17.4404 23.0469L18.6367 17.8906H20.2383L18.1875 25H16.6934L14.6572 17.8906H16.249L17.4404 23.0469ZM22.4062 25H20.9707V17.8906H22.4062V25Z" fill="white"/>
</svg>
