<svg width="32" height="32" viewBox="0 0 32 32" fill="none" xmlns="http://www.w3.org/2000/svg">
<path d="M3 3V29C3 30.6569 4.34315 32 6 32H26C27.6569 32 29 30.6569 29 29V12L17 0H6C4.34315 0 3 1.34315 3 3Z" fill="#FFDB8C"/>
<path d="M17 0L29 12H20C18.3431 12 17 10.6569 17 9V0Z" fill="#D99B2E"/>
<path d="M7.12305 25V17.8906H9.32031C10.0625 17.8906 10.6257 18.0566 11.0098 18.3887C11.3971 18.7174 11.5908 19.2008 11.5908 19.8389C11.5908 20.2002 11.5111 20.5111 11.3516 20.7715C11.1921 21.0319 10.974 21.2223 10.6973 21.3428C11.0163 21.4339 11.262 21.6178 11.4346 21.8945C11.6071 22.168 11.6934 22.5065 11.6934 22.9102C11.6934 23.6003 11.5029 24.1211 11.1221 24.4727C10.7445 24.8242 10.196 25 9.47656 25H7.12305ZM8.55859 21.9092V23.8086H9.47656C9.73372 23.8086 9.92904 23.7288 10.0625 23.5693C10.196 23.4098 10.2627 23.1836 10.2627 22.8906C10.2627 22.2526 10.0316 21.9255 9.56934 21.9092H8.55859ZM8.55859 20.8643H9.30566C9.86882 20.8643 10.1504 20.5729 10.1504 19.9902C10.1504 19.668 10.0853 19.4368 9.95508 19.2969C9.82487 19.1569 9.61328 19.0869 9.32031 19.0869H8.55859V20.8643ZM14.6133 17.8906L15.9561 23.0322L17.2939 17.8906H19.1689V25H17.7285V23.0762L17.8604 20.1123L16.4395 25H15.4629L14.042 20.1123L14.1738 23.0762V25H12.7383V17.8906H14.6133ZM21.7617 22.5V25H20.3262V17.8906H22.748C23.4512 17.8906 24.0111 18.1087 24.4277 18.5449C24.8477 18.9811 25.0576 19.5475 25.0576 20.2441C25.0576 20.9408 24.8509 21.4909 24.4375 21.8945C24.0241 22.2982 23.4512 22.5 22.7188 22.5H21.7617ZM21.7617 21.3037H22.748C23.0215 21.3037 23.2331 21.2142 23.3828 21.0352C23.5326 20.8561 23.6074 20.5957 23.6074 20.2539C23.6074 19.8991 23.5309 19.6175 23.3779 19.4092C23.2249 19.1976 23.0199 19.0902 22.7627 19.0869H21.7617V21.3037Z" fill="#66390C"/>
</svg>
