<svg width="32" height="32" viewBox="0 0 32 32" fill="none" xmlns="http://www.w3.org/2000/svg">
<path d="M3 3V29C3 30.6569 4.34315 32 6 32H26C27.6569 32 29 30.6569 29 29V12L17 0H6C4.34315 0 3 1.34315 3 3Z" fill="#5DC984"/>
<path d="M17 0L29 12H20C18.3431 12 17 10.6569 17 9V0Z" fill="#269C55"/>
<path d="M12.9482 22.6318C12.9124 23.4424 12.6846 24.056 12.2646 24.4727C11.8447 24.8893 11.2523 25.0977 10.4873 25.0977C9.68327 25.0977 9.06641 24.834 8.63672 24.3066C8.21029 23.776 7.99707 23.0208 7.99707 22.041V20.8447C7.99707 19.8682 8.21842 19.1162 8.66113 18.5889C9.10384 18.0583 9.71908 17.793 10.5068 17.793C11.2816 17.793 11.8691 18.0094 12.2695 18.4424C12.6732 18.8753 12.9027 19.4971 12.958 20.3076H11.5176C11.5046 19.8063 11.4264 19.4613 11.2832 19.2725C11.1432 19.0804 10.8844 18.9844 10.5068 18.9844C10.1227 18.9844 9.85091 19.1195 9.69141 19.3896C9.5319 19.6566 9.44727 20.0977 9.4375 20.7129V22.0557C9.4375 22.762 9.51562 23.2471 9.67188 23.5107C9.83138 23.7744 10.1032 23.9062 10.4873 23.9062C10.8649 23.9062 11.1253 23.8151 11.2686 23.6328C11.4118 23.4473 11.4932 23.1136 11.5127 22.6318H12.9482ZM16.835 23.1348C16.835 22.8451 16.7601 22.627 16.6104 22.4805C16.4639 22.3307 16.1953 22.1761 15.8047 22.0166C15.0918 21.7464 14.5791 21.4307 14.2666 21.0693C13.9541 20.7048 13.7979 20.2751 13.7979 19.7803C13.7979 19.1813 14.0094 18.7012 14.4326 18.3398C14.859 17.9753 15.3994 17.793 16.0537 17.793C16.4899 17.793 16.8789 17.8857 17.2207 18.0713C17.5625 18.2536 17.8245 18.5124 18.0068 18.8477C18.1924 19.1829 18.2852 19.5638 18.2852 19.9902H16.8545C16.8545 19.6582 16.7829 19.4059 16.6396 19.2334C16.4997 19.0576 16.2962 18.9697 16.0293 18.9697C15.7786 18.9697 15.5833 19.0446 15.4434 19.1943C15.3034 19.3408 15.2334 19.5394 15.2334 19.79C15.2334 19.9854 15.3115 20.1628 15.4678 20.3223C15.624 20.4785 15.9007 20.6413 16.2979 20.8105C16.9912 21.0612 17.4941 21.3688 17.8066 21.7334C18.1224 22.098 18.2803 22.5618 18.2803 23.125C18.2803 23.7435 18.0833 24.2269 17.6895 24.5752C17.2956 24.9235 16.7601 25.0977 16.083 25.0977C15.624 25.0977 15.2057 25.0033 14.8281 24.8145C14.4505 24.6257 14.1543 24.3555 13.9395 24.0039C13.7279 23.6523 13.6221 23.2373 13.6221 22.7588H15.0625C15.0625 23.1689 15.1423 23.4668 15.3018 23.6523C15.4613 23.8379 15.7217 23.9307 16.083 23.9307C16.5843 23.9307 16.835 23.6654 16.835 23.1348ZM21.5469 23.0469L22.7432 17.8906H24.3447L22.2939 25H20.7998L18.7637 17.8906H20.3555L21.5469 23.0469Z" fill="white"/>
</svg>
