<svg width="32" height="32" viewBox="0 0 32 32" fill="none" xmlns="http://www.w3.org/2000/svg">
<path d="M3 3V29C3 30.6569 4.34315 32 6 32H26C27.6569 32 29 30.6569 29 29V12L17 0H6C4.34315 0 3 1.34315 3 3Z" fill="#3B95FF"/>
<path d="M17 0L29 12H20C18.3431 12 17 10.6569 17 9V0Z" fill="#085FD9"/>
<path d="M7.875 25V17.8906H9.75488C10.585 17.8906 11.2458 18.1543 11.7373 18.6816C12.2321 19.209 12.4844 19.9316 12.4941 20.8496V22.002C12.4941 22.9362 12.2467 23.6702 11.752 24.2041C11.2604 24.7347 10.5817 25 9.71582 25H7.875ZM9.31055 19.0869V23.8086H9.74023C10.2188 23.8086 10.5557 23.6833 10.751 23.4326C10.9463 23.1787 11.0488 22.7425 11.0586 22.124V20.8887C11.0586 20.2246 10.9658 19.7624 10.7803 19.502C10.5947 19.2383 10.279 19.0999 9.83301 19.0869H9.31055ZM18.5342 22.085C18.5342 23.0387 18.3079 23.7793 17.8555 24.3066C17.4062 24.834 16.7812 25.0977 15.9805 25.0977C15.1829 25.0977 14.5563 24.8372 14.1006 24.3164C13.6449 23.7923 13.4137 23.0599 13.4072 22.1191V20.9033C13.4072 19.9268 13.6335 19.165 14.0859 18.6182C14.5384 18.068 15.1667 17.793 15.9707 17.793C16.7617 17.793 17.3851 18.0632 17.8408 18.6035C18.2965 19.1406 18.5277 19.8958 18.5342 20.8691V22.085ZM17.0938 20.8936C17.0938 20.2523 17.0026 19.7754 16.8203 19.4629C16.638 19.1504 16.3548 18.9941 15.9707 18.9941C15.5898 18.9941 15.3083 19.1455 15.126 19.4482C14.9437 19.7477 14.8493 20.2051 14.8428 20.8203V22.085C14.8428 22.7067 14.9355 23.1657 15.1211 23.4619C15.3066 23.7549 15.5931 23.9014 15.9805 23.9014C16.3548 23.9014 16.6331 23.7581 16.8154 23.4717C16.9977 23.182 17.0905 22.7344 17.0938 22.1289V20.8936ZM24.3838 22.6318C24.348 23.4424 24.1201 24.056 23.7002 24.4727C23.2803 24.8893 22.6878 25.0977 21.9229 25.0977C21.1188 25.0977 20.502 24.834 20.0723 24.3066C19.6458 23.776 19.4326 23.0208 19.4326 22.041V20.8447C19.4326 19.8682 19.654 19.1162 20.0967 18.5889C20.5394 18.0583 21.1546 17.793 21.9424 17.793C22.7171 17.793 23.3047 18.0094 23.7051 18.4424C24.1087 18.8753 24.3382 19.4971 24.3936 20.3076H22.9531C22.9401 19.8063 22.862 19.4613 22.7188 19.2725C22.5788 19.0804 22.32 18.9844 21.9424 18.9844C21.5583 18.9844 21.2865 19.1195 21.127 19.3896C20.9674 19.6566 20.8828 20.0977 20.873 20.7129V22.0557C20.873 22.762 20.9512 23.2471 21.1074 23.5107C21.2669 23.7744 21.5387 23.9062 21.9229 23.9062C22.3005 23.9062 22.5609 23.8151 22.7041 23.6328C22.8473 23.4473 22.9287 23.1136 22.9482 22.6318H24.3838Z" fill="white"/>
</svg>
