<svg width="32" height="32" viewBox="0 0 32 32" fill="none" xmlns="http://www.w3.org/2000/svg">
<path d="M3 3V29C3 30.6569 4.34315 32 6 32H26C27.6569 32 29 30.6569 29 29V12L17 0H6C4.34315 0 3 1.34315 3 3Z" fill="#3B95FF"/>
<path d="M17 0L29 12H20C18.3431 12 17 10.6569 17 9V0Z" fill="#085FD9"/>
<path d="M6.16943 25V18.6016H7.86133C8.6084 18.6016 9.20312 18.8389 9.64551 19.3135C10.0908 19.7881 10.3179 20.4385 10.3267 21.2646V22.3018C10.3267 23.1426 10.104 23.8032 9.65869 24.2837C9.21631 24.7612 8.60547 25 7.82617 25H6.16943ZM7.46143 19.6782V23.9277H7.84814C8.27881 23.9277 8.58203 23.8149 8.75781 23.5894C8.93359 23.3608 9.02588 22.9683 9.03467 22.4116V21.2998C9.03467 20.7021 8.95117 20.2861 8.78418 20.0518C8.61719 19.8145 8.33301 19.6899 7.93164 19.6782H7.46143ZM15.7627 22.3765C15.7627 23.2349 15.5591 23.9014 15.1519 24.376C14.7476 24.8506 14.1851 25.0879 13.4644 25.0879C12.7466 25.0879 12.1826 24.8535 11.7725 24.3848C11.3623 23.9131 11.1543 23.2539 11.1484 22.4072V21.313C11.1484 20.4341 11.3521 19.7485 11.7593 19.2563C12.1665 18.7612 12.7319 18.5137 13.4556 18.5137C14.1675 18.5137 14.7285 18.7568 15.1387 19.2432C15.5488 19.7266 15.7568 20.4062 15.7627 21.2822V22.3765ZM14.4663 21.3042C14.4663 20.7271 14.3843 20.2979 14.2202 20.0166C14.0562 19.7354 13.8013 19.5947 13.4556 19.5947C13.1128 19.5947 12.8594 19.731 12.6953 20.0034C12.5312 20.2729 12.4463 20.6846 12.4404 21.2383V22.3765C12.4404 22.936 12.5239 23.3491 12.6909 23.6157C12.8579 23.8794 13.1157 24.0112 13.4644 24.0112C13.8013 24.0112 14.0518 23.8823 14.2158 23.6245C14.3799 23.3638 14.4634 22.9609 14.4663 22.416V21.3042ZM21.0273 22.8687C20.9951 23.5981 20.79 24.1504 20.4121 24.5254C20.0342 24.9004 19.501 25.0879 18.8125 25.0879C18.0889 25.0879 17.5337 24.8506 17.147 24.376C16.7632 23.8984 16.5713 23.2188 16.5713 22.3369V21.2603C16.5713 20.3813 16.7705 19.7046 17.1689 19.23C17.5674 18.7524 18.1211 18.5137 18.8301 18.5137C19.5273 18.5137 20.0562 18.7085 20.4165 19.0981C20.7798 19.4878 20.9863 20.0474 21.0361 20.7769H19.7397C19.728 20.3257 19.6577 20.0151 19.5288 19.8452C19.4028 19.6724 19.1699 19.5859 18.8301 19.5859C18.4844 19.5859 18.2397 19.7075 18.0962 19.9507C17.9526 20.1909 17.8765 20.5879 17.8677 21.1416V22.3501C17.8677 22.9858 17.938 23.4224 18.0786 23.6597C18.2222 23.897 18.4668 24.0156 18.8125 24.0156C19.1523 24.0156 19.3867 23.9336 19.5156 23.7695C19.6445 23.6025 19.7178 23.3022 19.7354 22.8687H21.0273ZM23.8267 20.7988L24.688 18.6016H26.1689L24.666 21.7744L26.2041 25H24.7056L23.8267 22.7632L22.9521 25H21.4536L22.9917 21.7744L21.4844 18.6016H22.9653L23.8267 20.7988Z" fill="white"/>
</svg>
