<svg width="32" height="32" viewBox="0 0 32 32" fill="none" xmlns="http://www.w3.org/2000/svg">
<path d="M3 3V29C3 30.6569 4.34315 32 6 32H26C27.6569 32 29 30.6569 29 29V12L17 0H6C4.34315 0 3 1.34315 3 3Z" fill="#828D96"/>
<path d="M17 0L29 12H20C18.3431 12 17 10.6569 17 9V0Z" fill="#525D66"/>
<path d="M7.07422 25V17.8906H8.9541C9.78418 17.8906 10.445 18.1543 10.9365 18.6816C11.4313 19.209 11.6836 19.9316 11.6934 20.8496V22.002C11.6934 22.9362 11.446 23.6702 10.9512 24.2041C10.4596 24.7347 9.78092 25 8.91504 25H7.07422ZM8.50977 19.0869V23.8086H8.93945C9.41797 23.8086 9.75488 23.6833 9.9502 23.4326C10.1455 23.1787 10.248 22.7425 10.2578 22.124V20.8887C10.2578 20.2246 10.165 19.7624 9.97949 19.502C9.79395 19.2383 9.47819 19.0999 9.03223 19.0869H8.50977ZM17.3477 22.3584L18.0215 17.8906H19.4424L18.1777 25H16.7373L15.9072 20.8105L15.0869 25H13.6416L12.3721 17.8906H13.8027L14.4717 22.3535L15.3066 17.8906H16.5127L17.3477 22.3584ZM25.0527 24.1943C24.776 24.4938 24.4359 24.7201 24.0322 24.873C23.6318 25.0228 23.1924 25.0977 22.7139 25.0977C21.8968 25.0977 21.262 24.8454 20.8096 24.3408C20.3571 23.833 20.1243 23.0957 20.1113 22.1289V20.8496C20.1113 19.8698 20.3245 19.1162 20.751 18.5889C21.1807 18.0583 21.8057 17.793 22.626 17.793C23.3975 17.793 23.9785 17.9834 24.3691 18.3643C24.763 18.7451 24.9909 19.3424 25.0527 20.1562H23.6562C23.6172 19.7038 23.5228 19.3962 23.373 19.2334C23.2233 19.0674 22.9889 18.9844 22.6699 18.9844C22.2826 18.9844 22.001 19.126 21.8252 19.4092C21.6494 19.6924 21.5583 20.1432 21.5518 20.7617V22.0508C21.5518 22.6986 21.6478 23.1706 21.8398 23.4668C22.0352 23.7598 22.3542 23.9062 22.7969 23.9062C23.0801 23.9062 23.3096 23.8493 23.4854 23.7354L23.6123 23.6475V22.3438H22.6064V21.2598H25.0527V24.1943Z" fill="white"/>
</svg>
