<svg width="32" height="32" viewBox="0 0 32 32" fill="none" xmlns="http://www.w3.org/2000/svg">
<path d="M3 3V29C3 30.6569 4.34315 32 6 32H26C27.6569 32 29 30.6569 29 29V12L17 0H6C4.34315 0 3 1.34315 3 3Z" fill="#AE93F9"/>
<path d="M17 0L29 12H20C18.3431 12 17 10.6569 17 9V0Z" fill="#8C6EE1"/>
<path d="M11 25H9.56445V17.8906H11V25ZM15.209 23.1348C15.209 22.8451 15.1341 22.627 14.9844 22.4805C14.8379 22.3307 14.5693 22.1761 14.1787 22.0166C13.4658 21.7464 12.9531 21.4307 12.6406 21.0693C12.3281 20.7048 12.1719 20.2751 12.1719 19.7803C12.1719 19.1813 12.3835 18.7012 12.8066 18.3398C13.2331 17.9753 13.7734 17.793 14.4277 17.793C14.8639 17.793 15.2529 17.8857 15.5947 18.0713C15.9365 18.2536 16.1986 18.5124 16.3809 18.8477C16.5664 19.1829 16.6592 19.5638 16.6592 19.9902H15.2285C15.2285 19.6582 15.1569 19.4059 15.0137 19.2334C14.8737 19.0576 14.6702 18.9697 14.4033 18.9697C14.1527 18.9697 13.9574 19.0446 13.8174 19.1943C13.6774 19.3408 13.6074 19.5394 13.6074 19.79C13.6074 19.9854 13.6855 20.1628 13.8418 20.3223C13.998 20.4785 14.2747 20.6413 14.6719 20.8105C15.3652 21.0612 15.8682 21.3688 16.1807 21.7334C16.4964 22.098 16.6543 22.5618 16.6543 23.125C16.6543 23.7435 16.4574 24.2269 16.0635 24.5752C15.6696 24.9235 15.1341 25.0977 14.457 25.0977C13.998 25.0977 13.5798 25.0033 13.2021 24.8145C12.8245 24.6257 12.5283 24.3555 12.3135 24.0039C12.1019 23.6523 11.9961 23.2373 11.9961 22.7588H13.4365C13.4365 23.1689 13.5163 23.4668 13.6758 23.6523C13.8353 23.8379 14.0957 23.9307 14.457 23.9307C14.9583 23.9307 15.209 23.6654 15.209 23.1348ZM22.6113 22.085C22.6113 23.0387 22.3851 23.7793 21.9326 24.3066C21.4834 24.834 20.8584 25.0977 20.0576 25.0977C19.2601 25.0977 18.6335 24.8372 18.1777 24.3164C17.722 23.7923 17.4909 23.0599 17.4844 22.1191V20.9033C17.4844 19.9268 17.7106 19.165 18.1631 18.6182C18.6156 18.068 19.2438 17.793 20.0479 17.793C20.8389 17.793 21.4622 18.0632 21.918 18.6035C22.3737 19.1406 22.6048 19.8958 22.6113 20.8691V22.085ZM21.1709 20.8936C21.1709 20.2523 21.0798 19.7754 20.8975 19.4629C20.7152 19.1504 20.432 18.9941 20.0479 18.9941C19.667 18.9941 19.3854 19.1455 19.2031 19.4482C19.0208 19.7477 18.9264 20.2051 18.9199 20.8203V22.085C18.9199 22.7067 19.0127 23.1657 19.1982 23.4619C19.3838 23.7549 19.6702 23.9014 20.0576 23.9014C20.432 23.9014 20.7103 23.7581 20.8926 23.4717C21.0749 23.182 21.1676 22.7344 21.1709 22.1289V20.8936Z" fill="white"/>
</svg>
