<svg width="32" height="32" viewBox="0 0 32 32" fill="none" xmlns="http://www.w3.org/2000/svg">
<path d="M3 3V29C3 30.6569 4.34315 32 6 32H26C27.6569 32 29 30.6569 29 29V12L17 0H6C4.34315 0 3 1.34315 3 3Z" fill="#FFDB8C"/>
<path d="M17 0L29 12H20C18.3431 12 17 10.6569 17 9V0Z" fill="#D99B2E"/>
<path d="M9.17383 22.5V25H7.73828V17.8906H10.1602C10.8633 17.8906 11.4232 18.1087 11.8398 18.5449C12.2598 18.9811 12.4697 19.5475 12.4697 20.2441C12.4697 20.9408 12.263 21.4909 11.8496 21.8945C11.4362 22.2982 10.8633 22.5 10.1309 22.5H9.17383ZM9.17383 21.3037H10.1602C10.4336 21.3037 10.6452 21.2142 10.7949 21.0352C10.9447 20.8561 11.0195 20.5957 11.0195 20.2539C11.0195 19.8991 10.943 19.6175 10.79 19.4092C10.637 19.1976 10.432 19.0902 10.1748 19.0869H9.17383V21.3037ZM18.4023 25H16.9668L14.8672 20.3369V25H13.4316V17.8906H14.8672L16.9717 22.5586V17.8906H18.4023V25ZM24.3887 24.1943C24.112 24.4938 23.7718 24.7201 23.3682 24.873C22.9678 25.0228 22.5283 25.0977 22.0498 25.0977C21.2327 25.0977 20.598 24.8454 20.1455 24.3408C19.693 23.833 19.4603 23.0957 19.4473 22.1289V20.8496C19.4473 19.8698 19.6605 19.1162 20.0869 18.5889C20.5166 18.0583 21.1416 17.793 21.9619 17.793C22.7334 17.793 23.3145 17.9834 23.7051 18.3643C24.099 18.7451 24.3268 19.3424 24.3887 20.1562H22.9922C22.9531 19.7038 22.8587 19.3962 22.709 19.2334C22.5592 19.0674 22.3249 18.9844 22.0059 18.9844C21.6185 18.9844 21.3369 19.126 21.1611 19.4092C20.9854 19.6924 20.8942 20.1432 20.8877 20.7617V22.0508C20.8877 22.6986 20.9837 23.1706 21.1758 23.4668C21.3711 23.7598 21.6901 23.9062 22.1328 23.9062C22.416 23.9062 22.6455 23.8493 22.8213 23.7354L22.9482 23.6475V22.3438H21.9424V21.2598H24.3887V24.1943Z" fill="#66390C"/>
</svg>
