<svg width="32" height="32" viewBox="0 0 32 32" fill="none" xmlns="http://www.w3.org/2000/svg">
<path d="M3 3V29C3 30.6569 4.34315 32 6 32H26C27.6569 32 29 30.6569 29 29V12L17 0H6C4.34315 0 3 1.34315 3 3Z" fill="#FFDB8C"/>
<path d="M17 0L29 12H20C18.3431 12 17 10.6569 17 9V0Z" fill="#D99B2E"/>
<path d="M10.6875 17.8906H12.123V22.8125C12.123 23.5026 11.931 24.056 11.5469 24.4727C11.1628 24.8893 10.668 25.0977 10.0625 25.0977C9.41146 25.0977 8.90527 24.904 8.54395 24.5166C8.18262 24.1292 8.00195 23.5905 8.00195 22.9004H9.44238C9.44238 23.571 9.64909 23.9062 10.0625 23.9062C10.4792 23.9062 10.6875 23.5189 10.6875 22.7441V17.8906ZM14.6865 22.5V25H13.251V17.8906H15.6729C16.376 17.8906 16.9359 18.1087 17.3525 18.5449C17.7725 18.9811 17.9824 19.5475 17.9824 20.2441C17.9824 20.9408 17.7757 21.4909 17.3623 21.8945C16.9489 22.2982 16.376 22.5 15.6436 22.5H14.6865ZM14.6865 21.3037H15.6729C15.9463 21.3037 16.1579 21.2142 16.3076 21.0352C16.4574 20.8561 16.5322 20.5957 16.5322 20.2539C16.5322 19.8991 16.4557 19.6175 16.3027 19.4092C16.1497 19.1976 15.9447 19.0902 15.6875 19.0869H14.6865V21.3037ZM23.7783 24.1943C23.5016 24.4938 23.1615 24.7201 22.7578 24.873C22.3574 25.0228 21.918 25.0977 21.4395 25.0977C20.6224 25.0977 19.9876 24.8454 19.5352 24.3408C19.0827 23.833 18.8499 23.0957 18.8369 22.1289V20.8496C18.8369 19.8698 19.0501 19.1162 19.4766 18.5889C19.9062 18.0583 20.5312 17.793 21.3516 17.793C22.123 17.793 22.7041 17.9834 23.0947 18.3643C23.4886 18.7451 23.7165 19.3424 23.7783 20.1562H22.3818C22.3428 19.7038 22.2484 19.3962 22.0986 19.2334C21.9489 19.0674 21.7145 18.9844 21.3955 18.9844C21.0081 18.9844 20.7266 19.126 20.5508 19.4092C20.375 19.6924 20.2839 20.1432 20.2773 20.7617V22.0508C20.2773 22.6986 20.3734 23.1706 20.5654 23.4668C20.7607 23.7598 21.0798 23.9062 21.5225 23.9062C21.8057 23.9062 22.0352 23.8493 22.2109 23.7354L22.3379 23.6475V22.3438H21.332V21.2598H23.7783V24.1943Z" fill="#66390C"/>
</svg>
