<svg width="32" height="32" viewBox="0 0 32 32" fill="none" xmlns="http://www.w3.org/2000/svg">
<path d="M3 3V29C3 30.6569 4.34315 32 6 32H26C27.6569 32 29 30.6569 29 29V12L17 0H6C4.34315 0 3 1.34315 3 3Z" fill="#E3E8ED"/>
<path d="M17 0L29 12H20C18.3431 12 17 10.6569 17 9V0Z" fill="#AFBBC4"/>
<path d="M8.51172 18.6016H9.80371V23.0312C9.80371 23.6523 9.63086 24.1504 9.28516 24.5254C8.93945 24.9004 8.49414 25.0879 7.94922 25.0879C7.36328 25.0879 6.90771 24.9136 6.58252 24.5649C6.25732 24.2163 6.09473 23.7314 6.09473 23.1104H7.39111C7.39111 23.7139 7.57715 24.0156 7.94922 24.0156C8.32422 24.0156 8.51172 23.667 8.51172 22.9697V18.6016ZM13.5215 23.3213C13.5215 23.0605 13.4541 22.8643 13.3193 22.7324C13.1875 22.5977 12.9458 22.4585 12.5942 22.3149C11.9526 22.0718 11.4912 21.7876 11.21 21.4624C10.9287 21.1343 10.7881 20.7476 10.7881 20.3022C10.7881 19.7632 10.9785 19.3311 11.3594 19.0059C11.7432 18.6777 12.2295 18.5137 12.8184 18.5137C13.2109 18.5137 13.561 18.5972 13.8687 18.7642C14.1763 18.9282 14.4121 19.1611 14.5762 19.4629C14.7432 19.7646 14.8267 20.1074 14.8267 20.4912H13.5391C13.5391 20.1924 13.4746 19.9653 13.3457 19.8101C13.2197 19.6519 13.0366 19.5728 12.7964 19.5728C12.5708 19.5728 12.395 19.6401 12.269 19.7749C12.1431 19.9067 12.0801 20.0854 12.0801 20.311C12.0801 20.4868 12.1504 20.6465 12.291 20.79C12.4316 20.9307 12.6807 21.0771 13.0381 21.2295C13.6621 21.4551 14.1147 21.7319 14.396 22.0601C14.6802 22.3882 14.8223 22.8057 14.8223 23.3125C14.8223 23.8691 14.645 24.3042 14.2905 24.6177C13.936 24.9312 13.4541 25.0879 12.8447 25.0879C12.4316 25.0879 12.0552 25.0029 11.7153 24.833C11.3755 24.6631 11.1089 24.4199 10.9155 24.1035C10.7251 23.7871 10.6299 23.4136 10.6299 22.9829H11.9263C11.9263 23.3521 11.998 23.6201 12.1416 23.7871C12.2852 23.9541 12.5195 24.0376 12.8447 24.0376C13.2959 24.0376 13.5215 23.7988 13.5215 23.3213ZM20.1836 22.3765C20.1836 23.2349 19.98 23.9014 19.5728 24.376C19.1685 24.8506 18.606 25.0879 17.8853 25.0879C17.1675 25.0879 16.6035 24.8535 16.1934 24.3848C15.7832 23.9131 15.5752 23.2539 15.5693 22.4072V21.313C15.5693 20.4341 15.7729 19.7485 16.1802 19.2563C16.5874 18.7612 17.1528 18.5137 17.8765 18.5137C18.5884 18.5137 19.1494 18.7568 19.5596 19.2432C19.9697 19.7266 20.1777 20.4062 20.1836 21.2822V22.3765ZM18.8872 21.3042C18.8872 20.7271 18.8052 20.2979 18.6411 20.0166C18.4771 19.7354 18.2222 19.5947 17.8765 19.5947C17.5337 19.5947 17.2803 19.731 17.1162 20.0034C16.9521 20.2729 16.8672 20.6846 16.8613 21.2383V22.3765C16.8613 22.936 16.9448 23.3491 17.1118 23.6157C17.2788 23.8794 17.5366 24.0112 17.8853 24.0112C18.2222 24.0112 18.4727 23.8823 18.6367 23.6245C18.8008 23.3638 18.8843 22.9609 18.8872 22.416V21.3042ZM25.5845 25H24.2925L22.4028 20.8032V25H21.1108V18.6016H22.4028L24.2969 22.8027V18.6016H25.5845V25Z" fill="#525D66"/>
</svg>
