<svg width="32" height="32" viewBox="0 0 32 32" fill="none" xmlns="http://www.w3.org/2000/svg">
<path d="M3 3V29C3 30.6569 4.34315 32 6 32H26C27.6569 32 29 30.6569 29 29V12L17 0H6C4.34315 0 3 1.34315 3 3Z" fill="#FFDB8C"/>
<path d="M17 0L29 12H20C18.3431 12 17 10.6569 17 9V0Z" fill="#D99B2E"/>
<path d="M10.6338 22.2559L10.0674 22.9688V25H8.63184V17.8906H10.0674V20.9912L10.5215 20.2246L11.8447 17.8906H13.6025L11.5664 21.0156L13.6367 25H11.9326L10.6338 22.2559ZM17.8408 21.9238H15.6045V23.8086H18.251V25H14.1689V17.8906H18.2412V19.0869H15.6045V20.7666H17.8408V21.9238ZM21.2246 21.084L22.2939 17.8906H23.8564L21.9521 22.4219V25H20.4971V22.4219L18.5879 17.8906H20.1504L21.2246 21.084Z" fill="#66390C"/>
</svg>
