<svg width="32" height="32" viewBox="0 0 32 32" fill="none" xmlns="http://www.w3.org/2000/svg">
<path d="M3 3V29C3 30.6569 4.34315 32 6 32H26C27.6569 32 29 30.6569 29 29V12L17 0H6C4.34315 0 3 1.34315 3 3Z" fill="#E3E8ED"/>
<path d="M17 0L29 12H20C18.3431 12 17 10.6569 17 9V0Z" fill="#AFBBC4"/>
<path d="M10.4453 23.9277H12.7129V25H9.15332V18.6016H10.4453V23.9277ZM17.6831 22.3765C17.6831 23.2349 17.4795 23.9014 17.0723 24.376C16.668 24.8506 16.1055 25.0879 15.3848 25.0879C14.667 25.0879 14.103 24.8535 13.6929 24.3848C13.2827 23.9131 13.0747 23.2539 13.0688 22.4072V21.313C13.0688 20.4341 13.2725 19.7485 13.6797 19.2563C14.0869 18.7612 14.6523 18.5137 15.376 18.5137C16.0879 18.5137 16.6489 18.7568 17.0591 19.2432C17.4692 19.7266 17.6772 20.4062 17.6831 21.2822V22.3765ZM16.3867 21.3042C16.3867 20.7271 16.3047 20.2979 16.1406 20.0166C15.9766 19.7354 15.7217 19.5947 15.376 19.5947C15.0332 19.5947 14.7798 19.731 14.6157 20.0034C14.4517 20.2729 14.3667 20.6846 14.3608 21.2383V22.3765C14.3608 22.936 14.4443 23.3491 14.6113 23.6157C14.7783 23.8794 15.0361 24.0112 15.3848 24.0112C15.7217 24.0112 15.9722 23.8823 16.1362 23.6245C16.3003 23.3638 16.3838 22.9609 16.3867 22.416V21.3042ZM22.9609 24.2749C22.7119 24.5444 22.4058 24.748 22.0425 24.8857C21.6821 25.0205 21.2866 25.0879 20.856 25.0879C20.1206 25.0879 19.5493 24.8608 19.1421 24.4067C18.7349 23.9497 18.5254 23.2861 18.5137 22.416V21.2646C18.5137 20.3828 18.7056 19.7046 19.0894 19.23C19.4761 18.7524 20.0386 18.5137 20.7769 18.5137C21.4712 18.5137 21.9941 18.6851 22.3457 19.0278C22.7002 19.3706 22.9053 19.9082 22.9609 20.6406H21.7041C21.6689 20.2334 21.584 19.9565 21.4492 19.8101C21.3145 19.6606 21.1035 19.5859 20.8164 19.5859C20.4678 19.5859 20.2144 19.7134 20.0562 19.9683C19.8979 20.2231 19.8159 20.6289 19.8101 21.1855V22.3457C19.8101 22.9287 19.8965 23.3535 20.0693 23.6201C20.2451 23.8838 20.5322 24.0156 20.9307 24.0156C21.1855 24.0156 21.3921 23.9644 21.5503 23.8618L21.6646 23.7827V22.6094H20.7593V21.6338H22.9609V24.2749Z" fill="#525D66"/>
</svg>
