<svg width="32" height="32" viewBox="0 0 32 32" fill="none" xmlns="http://www.w3.org/2000/svg">
<path d="M3 3V29C3 30.6569 4.34315 32 6 32H26C27.6569 32 29 30.6569 29 29V12L17 0H6C4.34315 0 3 1.34315 3 3Z" fill="#FF6860"/>
<path d="M17 0L29 12H20C18.3431 12 17 10.6569 17 9V0Z" fill="#D93531"/>
<path d="M8.79785 17.8906L10.1406 23.0322L11.4785 17.8906H13.3535V25H11.9131V23.0762L12.0449 20.1123L10.624 25H9.64746L8.22656 20.1123L8.3584 23.0762V25H6.92285V17.8906H8.79785ZM19.5156 22.085C19.5156 23.0387 19.2894 23.7793 18.8369 24.3066C18.3877 24.834 17.7627 25.0977 16.9619 25.0977C16.1644 25.0977 15.5378 24.8372 15.082 24.3164C14.6263 23.7923 14.3952 23.0599 14.3887 22.1191V20.9033C14.3887 19.9268 14.6149 19.165 15.0674 18.6182C15.5199 18.068 16.1481 17.793 16.9521 17.793C17.7432 17.793 18.3665 18.0632 18.8223 18.6035C19.278 19.1406 19.5091 19.8958 19.5156 20.8691V22.085ZM18.0752 20.8936C18.0752 20.2523 17.984 19.7754 17.8018 19.4629C17.6195 19.1504 17.3363 18.9941 16.9521 18.9941C16.5713 18.9941 16.2897 19.1455 16.1074 19.4482C15.9251 19.7477 15.8307 20.2051 15.8242 20.8203V22.085C15.8242 22.7067 15.917 23.1657 16.1025 23.4619C16.2881 23.7549 16.5745 23.9014 16.9619 23.9014C17.3363 23.9014 17.6146 23.7581 17.7969 23.4717C17.9792 23.182 18.0719 22.7344 18.0752 22.1289V20.8936ZM22.7529 23.0469L23.9492 17.8906H25.5508L23.5 25H22.0059L19.9697 17.8906H21.5615L22.7529 23.0469Z" fill="white"/>
</svg>
