<svg width="32" height="32" viewBox="0 0 32 32" fill="none" xmlns="http://www.w3.org/2000/svg">
<path d="M3 3V29C3 30.6569 4.34315 32 6 32H26C27.6569 32 29 30.6569 29 29V12L17 0H6C4.34315 0 3 1.34315 3 3Z" fill="#E3E8ED"/>
<path d="M17 0L29 12H20C18.3431 12 17 10.6569 17 9V0Z" fill="#AFBBC4"/>
<path d="M9.27637 17.8906L10.6191 23.0322L11.957 17.8906H13.832V25H12.3916V23.0762L12.5234 20.1123L11.1025 25H10.126L8.70508 20.1123L8.83691 23.0762V25H7.40137V17.8906H9.27637ZM16.4248 22.5V25H14.9893V17.8906H17.4111C18.1143 17.8906 18.6742 18.1087 19.0908 18.5449C19.5107 18.9811 19.7207 19.5475 19.7207 20.2441C19.7207 20.9408 19.514 21.4909 19.1006 21.8945C18.6872 22.2982 18.1143 22.5 17.3818 22.5H16.4248ZM16.4248 21.3037H17.4111C17.6846 21.3037 17.8962 21.2142 18.0459 21.0352C18.1956 20.8561 18.2705 20.5957 18.2705 20.2539C18.2705 19.8991 18.194 19.6175 18.041 19.4092C17.888 19.1976 17.6829 19.0902 17.4258 19.0869H16.4248V21.3037ZM21.8057 20.8154H22.4746C22.7285 20.8154 22.9141 20.7275 23.0312 20.5518C23.1517 20.3727 23.2119 20.1351 23.2119 19.8389C23.2119 19.5557 23.1501 19.3359 23.0264 19.1797C22.9059 19.0202 22.7432 18.9404 22.5381 18.9404C22.346 18.9404 22.1882 19.0153 22.0645 19.165C21.944 19.3148 21.8838 19.5036 21.8838 19.7314H20.502C20.502 19.3604 20.5866 19.0283 20.7559 18.7354C20.9284 18.4391 21.1676 18.208 21.4736 18.042C21.7829 17.876 22.1247 17.793 22.499 17.793C23.1533 17.793 23.666 17.9736 24.0371 18.335C24.4082 18.6963 24.5938 19.1911 24.5938 19.8193C24.5938 20.1416 24.5091 20.4411 24.3398 20.7178C24.1738 20.9912 23.9541 21.2012 23.6807 21.3477C24.016 21.4909 24.265 21.7057 24.4277 21.9922C24.5938 22.2786 24.6768 22.6172 24.6768 23.0078C24.6768 23.6393 24.4749 24.1455 24.0713 24.5264C23.6709 24.9072 23.1436 25.0977 22.4893 25.0977C21.8805 25.0977 21.3857 24.9105 21.0049 24.5361C20.6273 24.1585 20.4385 23.6637 20.4385 23.0518H21.8203C21.8203 23.3057 21.887 23.5189 22.0205 23.6914C22.154 23.8639 22.3232 23.9502 22.5283 23.9502C22.766 23.9502 22.9531 23.8623 23.0898 23.6865C23.2298 23.5107 23.2998 23.2764 23.2998 22.9834C23.2998 22.2835 23.028 21.932 22.4844 21.9287H21.8057V20.8154Z" fill="#525D66"/>
</svg>
