<svg width="32" height="32" viewBox="0 0 32 32" fill="none" xmlns="http://www.w3.org/2000/svg">
<path d="M3 3V29C3 30.6569 4.34315 32 6 32H26C27.6569 32 29 30.6569 29 29V12L17 0H6C4.34315 0 3 1.34315 3 3Z" fill="#FF6860"/>
<path d="M17 0L29 12H20C18.3431 12 17 10.6569 17 9V0Z" fill="#D93531"/>
<path d="M9.27637 17.8906L10.6191 23.0322L11.957 17.8906H13.832V25H12.3916V23.0762L12.5234 20.1123L11.1025 25H10.126L8.70508 20.1123L8.83691 23.0762V25H7.40137V17.8906H9.27637ZM16.4248 22.5V25H14.9893V17.8906H17.4111C18.1143 17.8906 18.6742 18.1087 19.0908 18.5449C19.5107 18.9811 19.7207 19.5475 19.7207 20.2441C19.7207 20.9408 19.514 21.4909 19.1006 21.8945C18.6872 22.2982 18.1143 22.5 17.3818 22.5H16.4248ZM16.4248 21.3037H17.4111C17.6846 21.3037 17.8962 21.2142 18.0459 21.0352C18.1956 20.8561 18.2705 20.5957 18.2705 20.2539C18.2705 19.8991 18.194 19.6175 18.041 19.4092C17.888 19.1976 17.6829 19.0902 17.4258 19.0869H16.4248V21.3037ZM24.2178 22.3145H24.8232V23.4619H24.2178V25H22.8359V23.4619H20.4824L20.4189 22.5684L22.8311 17.8906H24.2178V22.3145ZM21.7617 22.3145H22.8359V19.9365L22.8066 19.9902L21.7617 22.3145Z" fill="white"/>
</svg>
