<svg width="32" height="32" viewBox="0 0 32 32" fill="none" xmlns="http://www.w3.org/2000/svg">
<path d="M3 3V29C3 30.6569 4.34315 32 6 32H26C27.6569 32 29 30.6569 29 29V12L17 0H6C4.34315 0 3 1.34315 3 3Z" fill="#828D96"/>
<path d="M17 0L29 12H20C18.3431 12 17 10.6569 17 9V0Z" fill="#525D66"/>
<path d="M10.1992 22.4023H9.48633V25H8.05078V17.8906H10.3408C11.0602 17.8906 11.6152 18.0778 12.0059 18.4521C12.3997 18.8232 12.5967 19.3522 12.5967 20.0391C12.5967 20.9831 12.2533 21.6439 11.5664 22.0215L12.8115 24.9316V25H11.2686L10.1992 22.4023ZM9.48633 21.2061H10.3018C10.5882 21.2061 10.8031 21.1117 10.9463 20.9229C11.0895 20.7308 11.1611 20.4753 11.1611 20.1562C11.1611 19.4434 10.8828 19.0869 10.3262 19.0869H9.48633V21.2061ZM16.9766 23.5449H15.0186L14.6377 25H13.1191L15.3408 17.8906H16.6543L18.8906 25H17.3574L16.9766 23.5449ZM15.3311 22.3486H16.6592L15.9951 19.8145L15.3311 22.3486ZM21.7129 22.4023H21V25H19.5645V17.8906H21.8545C22.5739 17.8906 23.1289 18.0778 23.5195 18.4521C23.9134 18.8232 24.1104 19.3522 24.1104 20.0391C24.1104 20.9831 23.7669 21.6439 23.0801 22.0215L24.3252 24.9316V25H22.7822L21.7129 22.4023ZM21 21.2061H21.8154C22.1019 21.2061 22.3167 21.1117 22.46 20.9229C22.6032 20.7308 22.6748 20.4753 22.6748 20.1562C22.6748 19.4434 22.3965 19.0869 21.8398 19.0869H21V21.2061Z" fill="white"/>
</svg>
