<svg width="32" height="32" viewBox="0 0 32 32" fill="none" xmlns="http://www.w3.org/2000/svg">
<path d="M3 3V29C3 30.6569 4.34315 32 6 32H26C27.6569 32 29 30.6569 29 29V12L17 0H6C4.34315 0 3 1.34315 3 3Z" fill="#3B95FF"/>
<path d="M17 0L29 12H20C18.3431 12 17 10.6569 17 9V0Z" fill="#085FD9"/>
<path d="M10.9854 22.4023H10.2725V25H8.83691V17.8906H11.127C11.8464 17.8906 12.4014 18.0778 12.792 18.4521C13.1859 18.8232 13.3828 19.3522 13.3828 20.0391C13.3828 20.9831 13.0394 21.6439 12.3525 22.0215L13.5977 24.9316V25H12.0547L10.9854 22.4023ZM10.2725 21.2061H11.0879C11.3743 21.2061 11.5892 21.1117 11.7324 20.9229C11.8757 20.7308 11.9473 20.4753 11.9473 20.1562C11.9473 19.4434 11.6689 19.0869 11.1123 19.0869H10.2725V21.2061ZM18.7295 19.0869H16.9717V25H15.5312V19.0869H13.8027V17.8906H18.7295V19.0869ZM23.2217 22.0996H20.9902V25H19.5547V17.8906H23.4902V19.0869H20.9902V20.9082H23.2217V22.0996Z" fill="white"/>
</svg>
