<svg width="32" height="32" viewBox="0 0 32 32" fill="none" xmlns="http://www.w3.org/2000/svg">
<path d="M3 3V29C3 30.6569 4.34315 32 6 32H26C27.6569 32 29 30.6569 29 29V12L17 0H6C4.34315 0 3 1.34315 3 3Z" fill="#AE93F9"/>
<path d="M17 0L29 12H20C18.3431 12 17 10.6569 17 9V0Z" fill="#8C6EE1"/>
<path d="M11.4639 23.1348C11.4639 22.8451 11.389 22.627 11.2393 22.4805C11.0928 22.3307 10.8242 22.1761 10.4336 22.0166C9.7207 21.7464 9.20801 21.4307 8.89551 21.0693C8.58301 20.7048 8.42676 20.2751 8.42676 19.7803C8.42676 19.1813 8.63835 18.7012 9.06152 18.3398C9.48796 17.9753 10.0283 17.793 10.6826 17.793C11.1188 17.793 11.5078 17.8857 11.8496 18.0713C12.1914 18.2536 12.4535 18.5124 12.6357 18.8477C12.8213 19.1829 12.9141 19.5638 12.9141 19.9902H11.4834C11.4834 19.6582 11.4118 19.4059 11.2686 19.2334C11.1286 19.0576 10.9251 18.9697 10.6582 18.9697C10.4076 18.9697 10.2122 19.0446 10.0723 19.1943C9.93229 19.3408 9.8623 19.5394 9.8623 19.79C9.8623 19.9854 9.94043 20.1628 10.0967 20.3223C10.2529 20.4785 10.5296 20.6413 10.9268 20.8105C11.6201 21.0612 12.123 21.3688 12.4355 21.7334C12.7513 22.098 12.9092 22.5618 12.9092 23.125C12.9092 23.7435 12.7122 24.2269 12.3184 24.5752C11.9245 24.9235 11.389 25.0977 10.7119 25.0977C10.2529 25.0977 9.83464 25.0033 9.45703 24.8145C9.07943 24.6257 8.7832 24.3555 8.56836 24.0039C8.35677 23.6523 8.25098 23.2373 8.25098 22.7588H9.69141C9.69141 23.1689 9.77116 23.4668 9.93066 23.6523C10.0902 23.8379 10.3506 23.9307 10.7119 23.9307C11.2132 23.9307 11.4639 23.6654 11.4639 23.1348ZM18.8613 21.9971C18.8613 23.1722 18.5439 24.0267 17.9092 24.5605L18.8906 25.4395L17.9873 26.2695L16.6787 25.0732L16.3027 25.0977C15.4987 25.0977 14.8688 24.8258 14.4131 24.2822C13.9606 23.7354 13.7327 22.9801 13.7295 22.0166V20.9033C13.7295 19.9268 13.9557 19.165 14.4082 18.6182C14.8607 18.068 15.4889 17.793 16.293 17.793C17.0775 17.793 17.6976 18.0566 18.1533 18.584C18.609 19.1113 18.8451 19.8519 18.8613 20.8057V21.9971ZM17.4209 20.8936C17.4209 20.2458 17.3281 19.7673 17.1426 19.458C16.957 19.1488 16.6738 18.9941 16.293 18.9941C15.9121 18.9941 15.6305 19.1455 15.4482 19.4482C15.266 19.7477 15.1715 20.2051 15.165 20.8203V21.9971C15.165 22.6481 15.2578 23.1283 15.4434 23.4375C15.6322 23.7467 15.9186 23.9014 16.3027 23.9014C16.6771 23.9014 16.9554 23.7484 17.1377 23.4424C17.3232 23.1331 17.4176 22.6628 17.4209 22.0312V20.8936ZM21.332 23.8086H23.8516V25H19.8965V17.8906H21.332V23.8086Z" fill="white"/>
</svg>
