<svg width="32" height="32" viewBox="0 0 32 32" fill="none" xmlns="http://www.w3.org/2000/svg">
<path d="M3 3V29C3 30.6569 4.34315 32 6 32H26C27.6569 32 29 30.6569 29 29V12L17 0H6C4.34315 0 3 1.34315 3 3Z" fill="#E3E8ED"/>
<path d="M17 0L29 12H20C18.3431 12 17 10.6569 17 9V0Z" fill="#AFBBC4"/>
<path d="M13.2534 19.6782H11.6714V25H10.375V19.6782H8.81934V18.6016H13.2534V19.6782ZM16 20.7988L16.8613 18.6016H18.3423L16.8394 21.7744L18.3774 25H16.8789L16 22.7632L15.1255 25H13.627L15.165 21.7744L13.6577 18.6016H15.1387L16 20.7988ZM23.1763 19.6782H21.5942V25H20.2979V19.6782H18.7422V18.6016H23.1763V19.6782Z" fill="#525D66"/>
</svg>
