<svg width="32" height="32" viewBox="0 0 32 32" fill="none" xmlns="http://www.w3.org/2000/svg">
<path d="M3 3V29C3 30.6569 4.34315 32 6 32H26C27.6569 32 29 30.6569 29 29V12L17 0H6C4.34315 0 3 1.34315 3 3Z" fill="#5DC984"/>
<path d="M17 0L29 12H20C18.3431 12 17 10.6569 17 9V0Z" fill="#269C55"/>
<path d="M9.81348 20.332L10.7705 17.8906H12.416L10.7461 21.416L12.4551 25H10.79L9.81348 22.5146L8.8418 25H7.17676L8.88574 21.416L7.21094 17.8906H8.85645L9.81348 20.332ZM15.0576 17.8906L16.4004 23.0322L17.7383 17.8906H19.6133V25H18.1729V23.0762L18.3047 20.1123L16.8838 25H15.9072L14.4863 20.1123L14.6182 23.0762V25H13.1826V17.8906H15.0576ZM22.2061 23.8086H24.7256V25H20.7705V17.8906H22.2061V23.8086Z" fill="white"/>
</svg>
