<svg width="32" height="32" viewBox="0 0 32 32" fill="none" xmlns="http://www.w3.org/2000/svg">
<path d="M3 3V29C3 30.6569 4.34315 32 6 32H26C27.6569 32 29 30.6569 29 29V12L17 0H6C4.34315 0 3 1.34315 3 3Z" fill="#828D96"/>
<path d="M17 0L29 12H20C18.3431 12 17 10.6569 17 9V0Z" fill="#525D66"/>
<path d="M11.21 23.8086H14.1396V25H9.53027V24.1357L12.4307 19.0869H9.50098V17.8906H14.0859V18.7354L11.21 23.8086ZM16.5225 25H15.0869V17.8906H16.5225V25ZM19.1641 22.5V25H17.7285V17.8906H20.1504C20.8535 17.8906 21.4134 18.1087 21.8301 18.5449C22.25 18.9811 22.46 19.5475 22.46 20.2441C22.46 20.9408 22.2533 21.4909 21.8398 21.8945C21.4264 22.2982 20.8535 22.5 20.1211 22.5H19.1641ZM19.1641 21.3037H20.1504C20.4238 21.3037 20.6354 21.2142 20.7852 21.0352C20.9349 20.8561 21.0098 20.5957 21.0098 20.2539C21.0098 19.8991 20.9333 19.6175 20.7803 19.4092C20.6273 19.1976 20.4222 19.0902 20.165 19.0869H19.1641V21.3037Z" fill="white"/>
</svg>
