<svg width="24" height="24" viewBox="0 0 24 24" fill="none" xmlns="http://www.w3.org/2000/svg">
<g clip-path="url(#clip0)">
<path d="M4 0C2.89545 0 2 0.895447 2 2V22C2 23.1046 2.89543 24 4 24H20C21.1046 24 22 23.1046 22 22V8H16C14.8954 8 14 7.10455 14 6V0H4Z" fill="#FF6860"/>
<path d="M14 0L22 8H16C14.8954 8 14 7.10457 14 6V0Z" fill="#D93531"/>
<path d="M9.23145 17.6904H7.46924L7.12646 19H5.75977L7.75928 12.6016H8.94141L10.9541 19H9.57422L9.23145 17.6904ZM7.75049 16.6138H8.9458L8.34814 14.333L7.75049 16.6138ZM13.2964 17.2422L14.373 12.6016H15.8145L13.9688 19H12.624L10.7915 12.6016H12.2241L13.2964 17.2422ZM17.7656 19H16.4736V12.6016H17.7656V19Z" fill="white"/>
</g>
<defs>
<clipPath id="clip0">
<path d="M0 0H24V24H0V0Z" fill="white"/>
</clipPath>
</defs>
</svg>
