<svg width="24" height="24" viewBox="0 0 24 24" fill="none" xmlns="http://www.w3.org/2000/svg">
<g clip-path="url(#clip0)">
<path d="M4 0C2.89545 0 2 0.895447 2 2V22C2 23.1046 2.89543 24 4 24H20C21.1046 24 22 23.1046 22 22V8H16C14.8954 8 14 7.10455 14 6V0H4Z" fill="#FFDB8C"/>
<path d="M14 0L22 8H16C14.8954 8 14 7.10457 14 6V0Z" fill="#D99B2E"/>
<path d="M4.01074 19V12.6016H5.98828C6.65625 12.6016 7.16309 12.751 7.50879 13.0498C7.85742 13.3457 8.03174 13.7808 8.03174 14.355C8.03174 14.6802 7.95996 14.96 7.81641 15.1943C7.67285 15.4287 7.47656 15.6001 7.22754 15.7085C7.51465 15.7905 7.73584 15.9561 7.89111 16.2051C8.04639 16.4512 8.12402 16.7559 8.12402 17.1191C8.12402 17.7402 7.95264 18.209 7.60986 18.5254C7.27002 18.8418 6.77637 19 6.12891 19H4.01074ZM5.30273 16.2183V17.9277H6.12891C6.36035 17.9277 6.53613 17.856 6.65625 17.7124C6.77637 17.5688 6.83643 17.3652 6.83643 17.1016C6.83643 16.5273 6.62842 16.2329 6.2124 16.2183H5.30273ZM5.30273 15.2778H5.9751C6.48193 15.2778 6.73535 15.0156 6.73535 14.4912C6.73535 14.2012 6.67676 13.9932 6.55957 13.8672C6.44238 13.7412 6.25195 13.6782 5.98828 13.6782H5.30273V15.2778ZM10.752 12.6016L11.9604 17.229L13.1646 12.6016H14.8521V19H13.5557V17.2686L13.6743 14.6011L12.3955 19H11.5166L10.2378 14.6011L10.3564 17.2686V19H9.06445V12.6016H10.752ZM17.1855 16.75V19H15.8936V12.6016H18.0732C18.7061 12.6016 19.21 12.7979 19.585 13.1904C19.9629 13.583 20.1519 14.0928 20.1519 14.7197C20.1519 15.3467 19.9658 15.8418 19.5938 16.2051C19.2217 16.5684 18.7061 16.75 18.0469 16.75H17.1855ZM17.1855 15.6733H18.0732C18.3193 15.6733 18.5098 15.5928 18.6445 15.4316C18.7793 15.2705 18.8467 15.0361 18.8467 14.7285C18.8467 14.4092 18.7778 14.1558 18.6401 13.9683C18.5024 13.7778 18.3179 13.6812 18.0864 13.6782H17.1855V15.6733Z" fill="#66390C"/>
</g>
<defs>
<clipPath id="clip0">
<path d="M0 0H24V24H0V0Z" fill="white"/>
</clipPath>
</defs>
</svg>
