<svg width="24" height="24" viewBox="0 0 24 24" fill="none" xmlns="http://www.w3.org/2000/svg">
<g clip-path="url(#clip0)">
<path d="M4 0C2.89545 0 2 0.895447 2 2V22C2 23.1046 2.89543 24 4 24H20C21.1046 24 22 23.1046 22 22V8H16C14.8954 8 14 7.10455 14 6V0H4Z" fill="#5DC984"/>
<path d="M14 0L22 8H16C14.8954 8 14 7.10457 14 6V0Z" fill="#269C55"/>
<path d="M9.25342 16.8687C9.22119 17.5981 9.01611 18.1504 8.63818 18.5254C8.26025 18.9004 7.72705 19.0879 7.03857 19.0879C6.31494 19.0879 5.75977 18.8506 5.37305 18.376C4.98926 17.8984 4.79736 17.2188 4.79736 16.3369V15.2603C4.79736 14.3813 4.99658 13.7046 5.39502 13.23C5.79346 12.7524 6.34717 12.5137 7.05615 12.5137C7.75342 12.5137 8.28223 12.7085 8.64258 13.0981C9.00586 13.4878 9.2124 14.0474 9.26221 14.7769H7.96582C7.9541 14.3257 7.88379 14.0151 7.75488 13.8452C7.62891 13.6724 7.396 13.5859 7.05615 13.5859C6.71045 13.5859 6.46582 13.7075 6.32227 13.9507C6.17871 14.1909 6.10254 14.5879 6.09375 15.1416V16.3501C6.09375 16.9858 6.16406 17.4224 6.30469 17.6597C6.44824 17.897 6.69287 18.0156 7.03857 18.0156C7.37842 18.0156 7.61279 17.9336 7.7417 17.7695C7.87061 17.6025 7.94385 17.3022 7.96143 16.8687H9.25342ZM12.7515 17.3213C12.7515 17.0605 12.6841 16.8643 12.5493 16.7324C12.4175 16.5977 12.1758 16.4585 11.8242 16.3149C11.1826 16.0718 10.7212 15.7876 10.4399 15.4624C10.1587 15.1343 10.0181 14.7476 10.0181 14.3022C10.0181 13.7632 10.2085 13.3311 10.5894 13.0059C10.9731 12.6777 11.4595 12.5137 12.0483 12.5137C12.4409 12.5137 12.791 12.5972 13.0986 12.7642C13.4062 12.9282 13.6421 13.1611 13.8062 13.4629C13.9731 13.7646 14.0566 14.1074 14.0566 14.4912H12.769C12.769 14.1924 12.7046 13.9653 12.5757 13.8101C12.4497 13.6519 12.2666 13.5728 12.0264 13.5728C11.8008 13.5728 11.625 13.6401 11.499 13.7749C11.373 13.9067 11.3101 14.0854 11.3101 14.311C11.3101 14.4868 11.3804 14.6465 11.521 14.79C11.6616 14.9307 11.9106 15.0771 12.2681 15.2295C12.8921 15.4551 13.3447 15.7319 13.626 16.0601C13.9102 16.3882 14.0522 16.8057 14.0522 17.3125C14.0522 17.8691 13.875 18.3042 13.5205 18.6177C13.166 18.9312 12.6841 19.0879 12.0747 19.0879C11.6616 19.0879 11.2852 19.0029 10.9453 18.833C10.6055 18.6631 10.3389 18.4199 10.1455 18.1035C9.95508 17.7871 9.85986 17.4136 9.85986 16.9829H11.1562C11.1562 17.3521 11.228 17.6201 11.3716 17.7871C11.5151 17.9541 11.7495 18.0376 12.0747 18.0376C12.5259 18.0376 12.7515 17.7988 12.7515 17.3213ZM16.9922 17.2422L18.0688 12.6016H19.5103L17.6646 19H16.3198L14.4873 12.6016H15.9199L16.9922 17.2422Z" fill="white"/>
</g>
<defs>
<clipPath id="clip0">
<path d="M0 0H24V24H0V0Z" fill="white"/>
</clipPath>
</defs>
</svg>
