<svg width="24" height="24" viewBox="0 0 24 24" fill="none" xmlns="http://www.w3.org/2000/svg">
<g clip-path="url(#clip0)">
<path d="M4 0C2.89545 0 2 0.895447 2 2V22C2 23.1046 2.89543 24 4 24H20C21.1046 24 22 23.1046 22 22V8H16C14.8954 8 14 7.10455 14 6V0H4Z" fill="#3B95FF"/>
<path d="M14 0L22 8H16C14.8954 8 14 7.10457 14 6V0Z" fill="#085FD9"/>
<path d="M4.6875 19V12.6016H6.37939C7.12646 12.6016 7.72119 12.8389 8.16357 13.3135C8.60889 13.7881 8.83594 14.4385 8.84473 15.2646V16.3018C8.84473 17.1426 8.62207 17.8032 8.17676 18.2837C7.73438 18.7612 7.12354 19 6.34424 19H4.6875ZM5.97949 13.6782V17.9277H6.36621C6.79688 17.9277 7.1001 17.8149 7.27588 17.5894C7.45166 17.3608 7.54395 16.9683 7.55273 16.4116V15.2998C7.55273 14.7021 7.46924 14.2861 7.30225 14.0518C7.13525 13.8145 6.85107 13.6899 6.44971 13.6782H5.97949ZM14.2808 16.3765C14.2808 17.2349 14.0771 17.9014 13.6699 18.376C13.2656 18.8506 12.7031 19.0879 11.9824 19.0879C11.2646 19.0879 10.7007 18.8535 10.2905 18.3848C9.88037 17.9131 9.67236 17.2539 9.6665 16.4072V15.313C9.6665 14.4341 9.87012 13.7485 10.2773 13.2563C10.6846 12.7612 11.25 12.5137 11.9736 12.5137C12.6855 12.5137 13.2466 12.7568 13.6567 13.2432C14.0669 13.7266 14.2749 14.4062 14.2808 15.2822V16.3765ZM12.9844 15.3042C12.9844 14.7271 12.9023 14.2979 12.7383 14.0166C12.5742 13.7354 12.3193 13.5947 11.9736 13.5947C11.6309 13.5947 11.3774 13.731 11.2134 14.0034C11.0493 14.2729 10.9644 14.6846 10.9585 15.2383V16.3765C10.9585 16.936 11.042 17.3491 11.209 17.6157C11.376 17.8794 11.6338 18.0112 11.9824 18.0112C12.3193 18.0112 12.5698 17.8823 12.7339 17.6245C12.8979 17.3638 12.9814 16.9609 12.9844 16.416V15.3042ZM19.5454 16.8687C19.5132 17.5981 19.3081 18.1504 18.9302 18.5254C18.5522 18.9004 18.019 19.0879 17.3306 19.0879C16.6069 19.0879 16.0518 18.8506 15.665 18.376C15.2812 17.8984 15.0894 17.2188 15.0894 16.3369V15.2603C15.0894 14.3813 15.2886 13.7046 15.687 13.23C16.0854 12.7524 16.6392 12.5137 17.3481 12.5137C18.0454 12.5137 18.5742 12.7085 18.9346 13.0981C19.2979 13.4878 19.5044 14.0474 19.5542 14.7769H18.2578C18.2461 14.3257 18.1758 14.0151 18.0469 13.8452C17.9209 13.6724 17.688 13.5859 17.3481 13.5859C17.0024 13.5859 16.7578 13.7075 16.6143 13.9507C16.4707 14.1909 16.3945 14.5879 16.3857 15.1416V16.3501C16.3857 16.9858 16.4561 17.4224 16.5967 17.6597C16.7402 17.897 16.9849 18.0156 17.3306 18.0156C17.6704 18.0156 17.9048 17.9336 18.0337 17.7695C18.1626 17.6025 18.2358 17.3022 18.2534 16.8687H19.5454Z" fill="white"/>
</g>
<defs>
<clipPath id="clip0">
<path d="M0 0H24V24H0V0Z" fill="white"/>
</clipPath>
</defs>
</svg>
