<svg width="24" height="24" viewBox="0 0 24 24" fill="none" xmlns="http://www.w3.org/2000/svg">
<g clip-path="url(#clip0)">
<path d="M4 0C2.89545 0 2 0.895447 2 2V22C2 23.1046 2.89543 24 4 24H20C21.1046 24 22 23.1046 22 22V8H16C14.8954 8 14 7.10455 14 6V0H4Z" fill="#3B95FF"/>
<path d="M14 0L22 8H16C14.8954 8 14 7.10457 14 6V0Z" fill="#085FD9"/>
<path d="M3.56558 19V12.957H5.16348C5.86904 12.957 6.43073 13.1812 6.84854 13.6294C7.26911 14.0776 7.48355 14.6919 7.49185 15.4722V16.4517C7.49185 17.2458 7.28156 17.8697 6.86099 18.3235C6.44318 18.7745 5.86628 19 5.13027 19H3.56558ZM4.78579 13.9739V17.9873H5.15103C5.55776 17.9873 5.84414 17.8808 6.01016 17.6677C6.17617 17.4519 6.26333 17.0811 6.27163 16.5554V15.5054C6.27163 14.9409 6.19277 14.548 6.03506 14.3267C5.87734 14.1025 5.60895 13.9849 5.22988 13.9739H4.78579ZM12.2009 16.5222C12.2009 17.3329 12.0086 17.9624 11.624 18.4106C11.2421 18.8589 10.7109 19.083 10.0302 19.083C9.35233 19.083 8.81969 18.8617 8.43232 18.4189C8.04495 17.9735 7.8485 17.3509 7.84297 16.5513V15.5178C7.84297 14.6877 8.03527 14.0403 8.41987 13.5754C8.80448 13.1078 9.33849 12.874 10.0219 12.874C10.6943 12.874 11.2242 13.1037 11.6115 13.563C11.9989 14.0195 12.1953 14.6615 12.2009 15.4888V16.5222ZM10.9765 15.5095C10.9765 14.9644 10.899 14.5591 10.7441 14.2935C10.5891 14.0278 10.3484 13.895 10.0219 13.895C9.69819 13.895 9.45885 14.0237 9.30391 14.281C9.14896 14.5356 9.06872 14.9243 9.06318 15.4473V16.5222C9.06318 17.0507 9.14204 17.4408 9.29976 17.6926C9.45747 17.9417 9.70096 18.0662 10.0302 18.0662C10.3484 18.0662 10.585 17.9444 10.7399 17.7009C10.8949 17.4547 10.9737 17.0742 10.9765 16.5596V15.5095ZM16.748 16.9871C16.7176 17.676 16.5239 18.1976 16.167 18.5518C15.8101 18.9059 15.3065 19.083 14.6562 19.083C13.9728 19.083 13.4485 18.8589 13.0833 18.4106C12.7208 17.9596 12.5396 17.3177 12.5396 16.4849V15.468C12.5396 14.6379 12.7277 13.9988 13.104 13.5505C13.4803 13.0995 14.0033 12.874 14.6729 12.874C15.3314 12.874 15.8308 13.058 16.1711 13.426C16.5142 13.794 16.7093 14.3225 16.7563 15.0115H15.532C15.5209 14.5854 15.4545 14.2921 15.3328 14.1316C15.2138 13.9683 14.9938 13.8867 14.6729 13.8867C14.3464 13.8867 14.1153 14.0015 13.9797 14.2312C13.8442 14.4581 13.7722 14.833 13.7639 15.356V16.4973C13.7639 17.0977 13.8303 17.51 13.9631 17.7341C14.0987 17.9583 14.3298 18.0703 14.6562 18.0703C14.9772 18.0703 15.1986 17.9928 15.3203 17.8379C15.4421 17.6802 15.5112 17.3966 15.5278 16.9871H16.748ZM18.9668 15.0322L19.7803 12.957H21.179L19.7596 15.9536L21.2122 19H19.7969L18.9668 16.8875L18.1409 19H16.7256L18.1783 15.9536L16.7547 12.957H18.1534L18.9668 15.0322Z" fill="white"/>
</g>
<defs>
<clipPath id="clip0">
<path d="M0 0H24V24H0V0Z" fill="white"/>
</clipPath>
</defs>
</svg>
