<svg width="24" height="24" viewBox="0 0 24 24" fill="none" xmlns="http://www.w3.org/2000/svg">
<g clip-path="url(#clip0)">
<path d="M4 0C2.89545 0 2 0.895447 2 2V22C2 23.1046 2.89543 24 4 24H20C21.1046 24 22 23.1046 22 22V8H16C14.8954 8 14 7.10455 14 6V0H4Z" fill="#828D96"/>
<path d="M14 0L22 8H16C14.8954 8 14 7.10457 14 6V0Z" fill="#525D66"/>
<path d="M3.9668 19V12.6016H5.65869C6.40576 12.6016 7.00049 12.8389 7.44287 13.3135C7.88818 13.7881 8.11523 14.4385 8.12402 15.2646V16.3018C8.12402 17.1426 7.90137 17.8032 7.45605 18.2837C7.01367 18.7612 6.40283 19 5.62354 19H3.9668ZM5.25879 13.6782V17.9277H5.64551C6.07617 17.9277 6.37939 17.8149 6.55518 17.5894C6.73096 17.3608 6.82324 16.9683 6.83203 16.4116V15.2998C6.83203 14.7021 6.74854 14.2861 6.58154 14.0518C6.41455 13.8145 6.13037 13.6899 5.729 13.6782H5.25879ZM13.2129 16.6226L13.8193 12.6016H15.0981L13.96 19H12.6636L11.9165 15.2295L11.1782 19H9.87744L8.73486 12.6016H10.0225L10.6245 16.6182L11.376 12.6016H12.4614L13.2129 16.6226ZM20.1475 18.2749C19.8984 18.5444 19.5923 18.748 19.229 18.8857C18.8687 19.0205 18.4731 19.0879 18.0425 19.0879C17.3071 19.0879 16.7358 18.8608 16.3286 18.4067C15.9214 17.9497 15.7119 17.2861 15.7002 16.416V15.2646C15.7002 14.3828 15.8921 13.7046 16.2759 13.23C16.6626 12.7524 17.2251 12.5137 17.9634 12.5137C18.6577 12.5137 19.1807 12.6851 19.5322 13.0278C19.8867 13.3706 20.0918 13.9082 20.1475 14.6406H18.8906C18.8555 14.2334 18.7705 13.9565 18.6357 13.8101C18.501 13.6606 18.29 13.5859 18.0029 13.5859C17.6543 13.5859 17.4009 13.7134 17.2427 13.9683C17.0845 14.2231 17.0024 14.6289 16.9966 15.1855V16.3457C16.9966 16.9287 17.083 17.3535 17.2559 17.6201C17.4316 17.8838 17.7188 18.0156 18.1172 18.0156C18.3721 18.0156 18.5786 17.9644 18.7368 17.8618L18.8511 17.7827V16.6094H17.9458V15.6338H20.1475V18.2749Z" fill="white"/>
</g>
<defs>
<clipPath id="clip0">
<path d="M0 0H24V24H0V0Z" fill="white"/>
</clipPath>
</defs>
</svg>
