<svg width="24" height="24" viewBox="0 0 24 24" fill="none" xmlns="http://www.w3.org/2000/svg">
<g clip-path="url(#clip0)">
<path d="M4 0C2.89545 0 2 0.895447 2 2V22C2 23.1046 2.89543 24 4 24H20C21.1046 24 22 23.1046 22 22V8H16C14.8954 8 14 7.10455 14 6V0H4Z" fill="#AE93F9"/>
<path d="M14 0L22 8H16C14.8954 8 14 7.10457 14 6V0Z" fill="#8C6EE1"/>
<path d="M7.5 19H6.20801V12.6016H7.5V19ZM11.2881 17.3213C11.2881 17.0605 11.2207 16.8643 11.0859 16.7324C10.9541 16.5977 10.7124 16.4585 10.3608 16.3149C9.71924 16.0718 9.25781 15.7876 8.97656 15.4624C8.69531 15.1343 8.55469 14.7476 8.55469 14.3022C8.55469 13.7632 8.74512 13.3311 9.12598 13.0059C9.50977 12.6777 9.99609 12.5137 10.585 12.5137C10.9775 12.5137 11.3276 12.5972 11.6353 12.7642C11.9429 12.9282 12.1787 13.1611 12.3428 13.4629C12.5098 13.7646 12.5933 14.1074 12.5933 14.4912H11.3057C11.3057 14.1924 11.2412 13.9653 11.1123 13.8101C10.9863 13.6519 10.8032 13.5728 10.563 13.5728C10.3374 13.5728 10.1616 13.6401 10.0356 13.7749C9.90967 13.9067 9.84668 14.0854 9.84668 14.311C9.84668 14.4868 9.91699 14.6465 10.0576 14.79C10.1982 14.9307 10.4473 15.0771 10.8047 15.2295C11.4287 15.4551 11.8813 15.7319 12.1626 16.0601C12.4468 16.3882 12.5889 16.8057 12.5889 17.3125C12.5889 17.8691 12.4116 18.3042 12.0571 18.6177C11.7026 18.9312 11.2207 19.0879 10.6113 19.0879C10.1982 19.0879 9.82178 19.0029 9.48193 18.833C9.14209 18.6631 8.87549 18.4199 8.68213 18.1035C8.4917 17.7871 8.39648 17.4136 8.39648 16.9829H9.69287C9.69287 17.3521 9.76465 17.6201 9.9082 17.7871C10.0518 17.9541 10.2861 18.0376 10.6113 18.0376C11.0625 18.0376 11.2881 17.7988 11.2881 17.3213ZM17.9502 16.3765C17.9502 17.2349 17.7466 17.9014 17.3394 18.376C16.9351 18.8506 16.3726 19.0879 15.6519 19.0879C14.9341 19.0879 14.3701 18.8535 13.96 18.3848C13.5498 17.9131 13.3418 17.2539 13.3359 16.4072V15.313C13.3359 14.4341 13.5396 13.7485 13.9468 13.2563C14.354 12.7612 14.9194 12.5137 15.6431 12.5137C16.355 12.5137 16.916 12.7568 17.3262 13.2432C17.7363 13.7266 17.9443 14.4062 17.9502 15.2822V16.3765ZM16.6538 15.3042C16.6538 14.7271 16.5718 14.2979 16.4077 14.0166C16.2437 13.7354 15.9888 13.5947 15.6431 13.5947C15.3003 13.5947 15.0469 13.731 14.8828 14.0034C14.7188 14.2729 14.6338 14.6846 14.6279 15.2383V16.3765C14.6279 16.936 14.7114 17.3491 14.8784 17.6157C15.0454 17.8794 15.3032 18.0112 15.6519 18.0112C15.9888 18.0112 16.2393 17.8823 16.4033 17.6245C16.5674 17.3638 16.6509 16.9609 16.6538 16.416V15.3042Z" fill="white"/>
</g>
<defs>
<clipPath id="clip0">
<path d="M0 0H24V24H0V0Z" fill="white"/>
</clipPath>
</defs>
</svg>
