<svg width="24" height="24" viewBox="0 0 24 24" fill="none" xmlns="http://www.w3.org/2000/svg">
<g clip-path="url(#clip0)">
<path d="M4 0C2.89545 0 2 0.895447 2 2V22C2 23.1046 2.89543 24 4 24H20C21.1046 24 22 23.1046 22 22V8H16C14.8954 8 14 7.10455 14 6V0H4Z" fill="#FFDB8C"/>
<path d="M14 0L22 8H16C14.8954 8 14 7.10457 14 6V0Z" fill="#D99B2E"/>
<path d="M7.21875 12.6016H8.51074V17.0312C8.51074 17.6523 8.33789 18.1504 7.99219 18.5254C7.64648 18.9004 7.20117 19.0879 6.65625 19.0879C6.07031 19.0879 5.61475 18.9136 5.28955 18.5649C4.96436 18.2163 4.80176 17.7314 4.80176 17.1104H6.09814C6.09814 17.7139 6.28418 18.0156 6.65625 18.0156C7.03125 18.0156 7.21875 17.667 7.21875 16.9697V12.6016ZM10.8179 16.75V19H9.52588V12.6016H11.7056C12.3384 12.6016 12.8423 12.7979 13.2173 13.1904C13.5952 13.583 13.7842 14.0928 13.7842 14.7197C13.7842 15.3467 13.5981 15.8418 13.2261 16.2051C12.854 16.5684 12.3384 16.75 11.6792 16.75H10.8179ZM10.8179 15.6733H11.7056C11.9517 15.6733 12.1421 15.5928 12.2769 15.4316C12.4116 15.2705 12.479 15.0361 12.479 14.7285C12.479 14.4092 12.4102 14.1558 12.2725 13.9683C12.1348 13.7778 11.9502 13.6812 11.7188 13.6782H10.8179V15.6733ZM19.0005 18.2749C18.7515 18.5444 18.4453 18.748 18.082 18.8857C17.7217 19.0205 17.3262 19.0879 16.8955 19.0879C16.1602 19.0879 15.5889 18.8608 15.1816 18.4067C14.7744 17.9497 14.5649 17.2861 14.5532 16.416V15.2646C14.5532 14.3828 14.7451 13.7046 15.1289 13.23C15.5156 12.7524 16.0781 12.5137 16.8164 12.5137C17.5107 12.5137 18.0337 12.6851 18.3853 13.0278C18.7397 13.3706 18.9448 13.9082 19.0005 14.6406H17.7437C17.7085 14.2334 17.6235 13.9565 17.4888 13.8101C17.354 13.6606 17.1431 13.5859 16.856 13.5859C16.5073 13.5859 16.2539 13.7134 16.0957 13.9683C15.9375 14.2231 15.8555 14.6289 15.8496 15.1855V16.3457C15.8496 16.9287 15.936 17.3535 16.1089 17.6201C16.2847 17.8838 16.5718 18.0156 16.9702 18.0156C17.2251 18.0156 17.4316 17.9644 17.5898 17.8618L17.7041 17.7827V16.6094H16.7988V15.6338H19.0005V18.2749Z" fill="#66390C"/>
</g>
<defs>
<clipPath id="clip0">
<path d="M0 0H24V24H0V0Z" fill="white"/>
</clipPath>
</defs>
</svg>
