<svg width="24" height="24" viewBox="0 0 24 24" fill="none" xmlns="http://www.w3.org/2000/svg">
<g clip-path="url(#clip0)">
<path d="M4 0C2.89545 0 2 0.895447 2 2V22C2 23.1046 2.89543 24 4 24H20C21.1046 24 22 23.1046 22 22V8H16C14.8954 8 14 7.10455 14 6V0H4Z" fill="#E3E8ED"/>
<path d="M14 0L22 8H16C14.8954 8 14 7.10457 14 6V0Z" fill="#AFBBC4"/>
<path d="M5.77773 12.957H6.99795V17.1406C6.99795 17.7272 6.8347 18.1976 6.5082 18.5518C6.18171 18.9059 5.76113 19.083 5.24648 19.083C4.6931 19.083 4.26284 18.9184 3.95571 18.5891C3.64858 18.2598 3.49502 17.8019 3.49502 17.2153H4.71939C4.71939 17.7853 4.89509 18.0703 5.24648 18.0703C5.60065 18.0703 5.77773 17.741 5.77773 17.0825V12.957ZM10.0842 17.4146C10.0842 17.1683 10.0205 16.9829 9.89326 16.8584C9.76875 16.7311 9.54048 16.5997 9.20845 16.4641C8.60249 16.2345 8.1667 15.9661 7.90107 15.6589C7.63545 15.349 7.50264 14.9838 7.50264 14.5632C7.50264 14.0541 7.68249 13.646 8.04219 13.3389C8.40466 13.029 8.86397 12.874 9.42012 12.874C9.79089 12.874 10.1215 12.9529 10.4121 13.1106C10.7026 13.2655 10.9253 13.4855 11.0803 13.7705C11.238 14.0555 11.3168 14.3792 11.3168 14.7417H10.1008C10.1008 14.4595 10.0399 14.245 9.91816 14.0984C9.79919 13.949 9.62625 13.8743 9.39937 13.8743C9.18631 13.8743 9.0203 13.9379 8.90132 14.0652C8.78234 14.1897 8.72285 14.3585 8.72285 14.5715C8.72285 14.7375 8.78926 14.8883 8.92207 15.0239C9.05488 15.1567 9.29007 15.2951 9.62764 15.439C10.217 15.652 10.6445 15.9135 10.9101 16.2234C11.1785 16.5333 11.3127 16.9276 11.3127 17.4062C11.3127 17.932 11.1453 18.3429 10.8105 18.6389C10.4757 18.935 10.0205 19.083 9.44502 19.083C9.05488 19.083 8.69933 19.0028 8.37837 18.8423C8.05741 18.6818 7.80562 18.4521 7.623 18.1533C7.44315 17.8545 7.35322 17.5017 7.35322 17.095H8.57759C8.57759 17.4436 8.64538 17.6968 8.78096 17.8545C8.91654 18.0122 9.13789 18.0911 9.44502 18.0911C9.87113 18.0911 10.0842 17.8656 10.0842 17.4146ZM15.9512 16.5222C15.9512 17.3329 15.7589 17.9624 15.3743 18.4106C14.9924 18.8589 14.4612 19.083 13.7805 19.083C13.1026 19.083 12.57 18.8617 12.1826 18.4189C11.7952 17.9735 11.5988 17.3509 11.5933 16.5513V15.5178C11.5933 14.6877 11.7856 14.0403 12.1702 13.5754C12.5548 13.1078 13.0888 12.874 13.7722 12.874C14.4446 12.874 14.9744 13.1037 15.3618 13.563C15.7492 14.0195 15.9456 14.6615 15.9512 15.4888V16.5222ZM14.7268 15.5095C14.7268 14.9644 14.6493 14.5591 14.4944 14.2935C14.3394 14.0278 14.0987 13.895 13.7722 13.895C13.4485 13.895 13.2091 14.0237 13.0542 14.281C12.8993 14.5356 12.819 14.9243 12.8135 15.4473V16.5222C12.8135 17.0507 12.8923 17.4408 13.05 17.6926C13.2078 17.9417 13.4513 18.0662 13.7805 18.0662C14.0987 18.0662 14.3353 17.9444 14.4902 17.7009C14.6452 17.4547 14.724 17.0742 14.7268 16.5596V15.5095ZM20.627 19H19.4068L17.6221 15.0364V19H16.4019V12.957H17.6221L19.4109 16.9248V12.957H20.627V19Z" fill="#525D66"/>
</g>
<defs>
<clipPath id="clip0">
<path d="M0 0H24V24H0V0Z" fill="white"/>
</clipPath>
</defs>
</svg>
