<svg width="24" height="24" viewBox="0 0 24 24" fill="none" xmlns="http://www.w3.org/2000/svg">
<g clip-path="url(#clip0)">
<path d="M4 0C2.89545 0 2 0.895447 2 2V22C2 23.1046 2.89543 24 4 24H20C21.1046 24 22 23.1046 22 22V8H16C14.8954 8 14 7.10455 14 6V0H4Z" fill="#FFDB8C"/>
<path d="M14 0L22 8H16C14.8954 8 14 7.10457 14 6V0Z" fill="#D99B2E"/>
<path d="M7.17041 16.5303L6.66064 17.1719V19H5.36865V12.6016H6.66064V15.3921L7.06934 14.7021L8.26025 12.6016H9.84229L8.00977 15.4141L9.87305 19H8.33936L7.17041 16.5303ZM13.6567 16.2314H11.644V17.9277H14.0259V19H10.3521V12.6016H14.0171V13.6782H11.644V15.1899H13.6567V16.2314ZM16.7021 15.4756L17.6646 12.6016H19.0708L17.3569 16.6797V19H16.0474V16.6797L14.3291 12.6016H15.7354L16.7021 15.4756Z" fill="#66390C"/>
</g>
<defs>
<clipPath id="clip0">
<path d="M0 0H24V24H0V0Z" fill="white"/>
</clipPath>
</defs>
</svg>
