<svg width="24" height="24" viewBox="0 0 24 24" fill="none" xmlns="http://www.w3.org/2000/svg">
<g clip-path="url(#clip0)">
<path d="M4 0C2.89545 0 2 0.895447 2 2V22C2 23.1046 2.89543 24 4 24H20C21.1046 24 22 23.1046 22 22V8H16C14.8954 8 14 7.10455 14 6V0H4Z" fill="#E3E8ED"/>
<path d="M14 0L22 8H16C14.8954 8 14 7.10457 14 6V0Z" fill="#AFBBC4"/>
<path d="M6.44531 17.9277H8.71289V19H5.15332V12.6016H6.44531V17.9277ZM13.6831 16.3765C13.6831 17.2349 13.4795 17.9014 13.0723 18.376C12.668 18.8506 12.1055 19.0879 11.3848 19.0879C10.667 19.0879 10.103 18.8535 9.69287 18.3848C9.28271 17.9131 9.07471 17.2539 9.06885 16.4072V15.313C9.06885 14.4341 9.27246 13.7485 9.67969 13.2563C10.0869 12.7612 10.6523 12.5137 11.376 12.5137C12.0879 12.5137 12.6489 12.7568 13.0591 13.2432C13.4692 13.7266 13.6772 14.4062 13.6831 15.2822V16.3765ZM12.3867 15.3042C12.3867 14.7271 12.3047 14.2979 12.1406 14.0166C11.9766 13.7354 11.7217 13.5947 11.376 13.5947C11.0332 13.5947 10.7798 13.731 10.6157 14.0034C10.4517 14.2729 10.3667 14.6846 10.3608 15.2383V16.3765C10.3608 16.936 10.4443 17.3491 10.6113 17.6157C10.7783 17.8794 11.0361 18.0112 11.3848 18.0112C11.7217 18.0112 11.9722 17.8823 12.1362 17.6245C12.3003 17.3638 12.3838 16.9609 12.3867 16.416V15.3042ZM18.9609 18.2749C18.7119 18.5444 18.4058 18.748 18.0425 18.8857C17.6821 19.0205 17.2866 19.0879 16.856 19.0879C16.1206 19.0879 15.5493 18.8608 15.1421 18.4067C14.7349 17.9497 14.5254 17.2861 14.5137 16.416V15.2646C14.5137 14.3828 14.7056 13.7046 15.0894 13.23C15.4761 12.7524 16.0386 12.5137 16.7769 12.5137C17.4712 12.5137 17.9941 12.6851 18.3457 13.0278C18.7002 13.3706 18.9053 13.9082 18.9609 14.6406H17.7041C17.6689 14.2334 17.584 13.9565 17.4492 13.8101C17.3145 13.6606 17.1035 13.5859 16.8164 13.5859C16.4678 13.5859 16.2144 13.7134 16.0562 13.9683C15.8979 14.2231 15.8159 14.6289 15.8101 15.1855V16.3457C15.8101 16.9287 15.8965 17.3535 16.0693 17.6201C16.2451 17.8838 16.5322 18.0156 16.9307 18.0156C17.1855 18.0156 17.3921 17.9644 17.5503 17.8618L17.6646 17.7827V16.6094H16.7593V15.6338H18.9609V18.2749Z" fill="#525D66"/>
</g>
<defs>
<clipPath id="clip0">
<path d="M0 0H24V24H0V0Z" fill="white"/>
</clipPath>
</defs>
</svg>
