<svg width="24" height="24" viewBox="0 0 24 24" fill="none" xmlns="http://www.w3.org/2000/svg">
<g clip-path="url(#clip0)">
<path d="M4 0C2.89545 0 2 0.895447 2 2V22C2 23.1046 2.89543 24 4 24H20C21.1046 24 22 23.1046 22 22V8H16C14.8954 8 14 7.10455 14 6V0H4Z" fill="#FF6860"/>
<path d="M14 0L22 8H16C14.8954 8 14 7.10457 14 6V0Z" fill="#D93531"/>
<path d="M5.51807 12.6016L6.72656 17.229L7.93066 12.6016H9.61816V19H8.32178V17.2686L8.44043 14.6011L7.16162 19H6.28271L5.00391 14.6011L5.12256 17.2686V19H3.83057V12.6016H5.51807ZM15.1641 16.3765C15.1641 17.2349 14.9604 17.9014 14.5532 18.376C14.1489 18.8506 13.5864 19.0879 12.8657 19.0879C12.1479 19.0879 11.584 18.8535 11.1738 18.3848C10.7637 17.9131 10.5557 17.2539 10.5498 16.4072V15.313C10.5498 14.4341 10.7534 13.7485 11.1606 13.2563C11.5679 12.7612 12.1333 12.5137 12.8569 12.5137C13.5688 12.5137 14.1299 12.7568 14.54 13.2432C14.9502 13.7266 15.1582 14.4062 15.1641 15.2822V16.3765ZM13.8677 15.3042C13.8677 14.7271 13.7856 14.2979 13.6216 14.0166C13.4575 13.7354 13.2026 13.5947 12.8569 13.5947C12.5142 13.5947 12.2607 13.731 12.0967 14.0034C11.9326 14.2729 11.8477 14.6846 11.8418 15.2383V16.3765C11.8418 16.936 11.9253 17.3491 12.0923 17.6157C12.2593 17.8794 12.5171 18.0112 12.8657 18.0112C13.2026 18.0112 13.4531 17.8823 13.6172 17.6245C13.7812 17.3638 13.8647 16.9609 13.8677 16.416V15.3042ZM18.0776 17.2422L19.1543 12.6016H20.5957L18.75 19H17.4053L15.5728 12.6016H17.0054L18.0776 17.2422Z" fill="white"/>
</g>
<defs>
<clipPath id="clip0">
<path d="M0 0H24V24H0V0Z" fill="white"/>
</clipPath>
</defs>
</svg>
