<svg width="24" height="24" viewBox="0 0 24 24" fill="none" xmlns="http://www.w3.org/2000/svg">
<g clip-path="url(#clip0)">
<path d="M4 0C2.89545 0 2 0.895447 2 2V22C2 23.1046 2.89543 24 4 24H20C21.1046 24 22 23.1046 22 22V8H16C14.8954 8 14 7.10455 14 6V0H4Z" fill="#E3E8ED"/>
<path d="M14 0L22 8H16C14.8954 8 14 7.10457 14 6V0Z" fill="#AFBBC4"/>
<path d="M5.94873 12.6016L7.15723 17.229L8.36133 12.6016H10.0488V19H8.75244V17.2686L8.87109 14.6011L7.59229 19H6.71338L5.43457 14.6011L5.55322 17.2686V19H4.26123V12.6016H5.94873ZM12.3823 16.75V19H11.0903V12.6016H13.27C13.9028 12.6016 14.4067 12.7979 14.7817 13.1904C15.1597 13.583 15.3486 14.0928 15.3486 14.7197C15.3486 15.3467 15.1626 15.8418 14.7905 16.2051C14.4185 16.5684 13.9028 16.75 13.2437 16.75H12.3823ZM12.3823 15.6733H13.27C13.5161 15.6733 13.7065 15.5928 13.8413 15.4316C13.9761 15.2705 14.0435 15.0361 14.0435 14.7285C14.0435 14.4092 13.9746 14.1558 13.8369 13.9683C13.6992 13.7778 13.5146 13.6812 13.2832 13.6782H12.3823V15.6733ZM17.2251 15.2339H17.8271C18.0557 15.2339 18.2227 15.1548 18.3281 14.9966C18.4365 14.8354 18.4907 14.6216 18.4907 14.355C18.4907 14.1001 18.4351 13.9023 18.3237 13.7617C18.2153 13.6182 18.0688 13.5464 17.8843 13.5464C17.7114 13.5464 17.5693 13.6138 17.458 13.7485C17.3496 13.8833 17.2954 14.0532 17.2954 14.2583H16.0518C16.0518 13.9243 16.1279 13.6255 16.2803 13.3618C16.4355 13.0952 16.6509 12.8872 16.9263 12.7378C17.2046 12.5884 17.5122 12.5137 17.8491 12.5137C18.438 12.5137 18.8994 12.6763 19.2334 13.0015C19.5674 13.3267 19.7344 13.772 19.7344 14.3374C19.7344 14.6274 19.6582 14.897 19.5059 15.146C19.3564 15.3921 19.1587 15.5811 18.9126 15.7129C19.2144 15.8418 19.4385 16.0352 19.585 16.293C19.7344 16.5508 19.8091 16.8555 19.8091 17.207C19.8091 17.7754 19.6274 18.231 19.2642 18.5737C18.9038 18.9165 18.4292 19.0879 17.8403 19.0879C17.2925 19.0879 16.8472 18.9194 16.5044 18.5825C16.1646 18.2427 15.9946 17.7974 15.9946 17.2466H17.2383C17.2383 17.4751 17.2983 17.667 17.4185 17.8223C17.5386 17.9775 17.6909 18.0552 17.8755 18.0552C18.0894 18.0552 18.2578 17.9761 18.3809 17.8179C18.5068 17.6597 18.5698 17.4487 18.5698 17.1851C18.5698 16.5552 18.3252 16.2388 17.8359 16.2358H17.2251V15.2339Z" fill="#525D66"/>
</g>
<defs>
<clipPath id="clip0">
<path d="M0 0H24V24H0V0Z" fill="white"/>
</clipPath>
</defs>
</svg>
