<svg width="24" height="24" viewBox="0 0 24 24" fill="none" xmlns="http://www.w3.org/2000/svg">
<g clip-path="url(#clip0)">
<path d="M4 0C2.89545 0 2 0.895447 2 2V22C2 23.1046 2.89543 24 4 24H20C21.1046 24 22 23.1046 22 22V8H16C14.8954 8 14 7.10455 14 6V0H4Z" fill="#FF6860"/>
<path d="M14 0L22 8H16C14.8954 8 14 7.10457 14 6V0Z" fill="#D93531"/>
<path d="M5.94873 12.6016L7.15723 17.229L8.36133 12.6016H10.0488V19H8.75244V17.2686L8.87109 14.6011L7.59229 19H6.71338L5.43457 14.6011L5.55322 17.2686V19H4.26123V12.6016H5.94873ZM12.3823 16.75V19H11.0903V12.6016H13.27C13.9028 12.6016 14.4067 12.7979 14.7817 13.1904C15.1597 13.583 15.3486 14.0928 15.3486 14.7197C15.3486 15.3467 15.1626 15.8418 14.7905 16.2051C14.4185 16.5684 13.9028 16.75 13.2437 16.75H12.3823ZM12.3823 15.6733H13.27C13.5161 15.6733 13.7065 15.5928 13.8413 15.4316C13.9761 15.2705 14.0435 15.0361 14.0435 14.7285C14.0435 14.4092 13.9746 14.1558 13.8369 13.9683C13.6992 13.7778 13.5146 13.6812 13.2832 13.6782H12.3823V15.6733ZM19.396 16.583H19.9409V17.6157H19.396V19H18.1523V17.6157H16.0342L15.9771 16.8115L18.1479 12.6016H19.396V16.583ZM17.1855 16.583H18.1523V14.4429L18.126 14.4912L17.1855 16.583Z" fill="white"/>
</g>
<defs>
<clipPath id="clip0">
<path d="M0 0H24V24H0V0Z" fill="white"/>
</clipPath>
</defs>
</svg>
