<svg width="24" height="24" viewBox="0 0 24 24" fill="none" xmlns="http://www.w3.org/2000/svg">
<g clip-path="url(#clip0)">
<path d="M4 0C2.89545 0 2 0.895447 2 2V22C2 23.1046 2.89543 24 4 24H20C21.1046 24 22 23.1046 22 22V8H16C14.8954 8 14 7.10455 14 6V0H4Z" fill="#FF6860"/>
<path d="M14 0L22 8H16C14.8954 8 14 7.10457 14 6V0Z" fill="#D93531"/>
<path d="M6.55957 16.75V19H5.26758V12.6016H7.44727C8.08008 12.6016 8.58398 12.7979 8.95898 13.1904C9.33691 13.583 9.52588 14.0928 9.52588 14.7197C9.52588 15.3467 9.33984 15.8418 8.96777 16.2051C8.5957 16.5684 8.08008 16.75 7.4209 16.75H6.55957ZM6.55957 15.6733H7.44727C7.69336 15.6733 7.88379 15.5928 8.01855 15.4316C8.15332 15.2705 8.2207 15.0361 8.2207 14.7285C8.2207 14.4092 8.15186 14.1558 8.01416 13.9683C7.87646 13.7778 7.69189 13.6812 7.46045 13.6782H6.55957V15.6733ZM10.3916 19V12.6016H12.0835C12.8306 12.6016 13.4253 12.8389 13.8677 13.3135C14.313 13.7881 14.54 14.4385 14.5488 15.2646V16.3018C14.5488 17.1426 14.3262 17.8032 13.8809 18.2837C13.4385 18.7612 12.8276 19 12.0483 19H10.3916ZM11.6836 13.6782V17.9277H12.0703C12.501 17.9277 12.8042 17.8149 12.98 17.5894C13.1558 17.3608 13.248 16.9683 13.2568 16.4116V15.2998C13.2568 14.7021 13.1733 14.2861 13.0063 14.0518C12.8394 13.8145 12.5552 13.6899 12.1538 13.6782H11.6836ZM18.7808 16.3896H16.7725V19H15.4805V12.6016H19.0225V13.6782H16.7725V15.3174H18.7808V16.3896Z" fill="white"/>
</g>
<defs>
<clipPath id="clip0">
<path d="M0 0H24V24H0V0Z" fill="white"/>
</clipPath>
</defs>
</svg>
