<svg width="24" height="24" viewBox="0 0 24 24" fill="none" xmlns="http://www.w3.org/2000/svg">
<g clip-path="url(#clip0)">
<path d="M4 0C2.89545 0 2 0.895447 2 2V22C2 23.1046 2.89543 24 4 24H20C21.1046 24 22 23.1046 22 22V8H16C14.8954 8 14 7.10455 14 6V0H4Z" fill="#FFDB8C"/>
<path d="M14 0L22 8H16C14.8954 8 14 7.10457 14 6V0Z" fill="#D99B2E"/>
<path d="M5.85645 16.75V19H4.56445V12.6016H6.74414C7.37695 12.6016 7.88086 12.7979 8.25586 13.1904C8.63379 13.583 8.82275 14.0928 8.82275 14.7197C8.82275 15.3467 8.63672 15.8418 8.26465 16.2051C7.89258 16.5684 7.37695 16.75 6.71777 16.75H5.85645ZM5.85645 15.6733H6.74414C6.99023 15.6733 7.18066 15.5928 7.31543 15.4316C7.4502 15.2705 7.51758 15.0361 7.51758 14.7285C7.51758 14.4092 7.44873 14.1558 7.31104 13.9683C7.17334 13.7778 6.98877 13.6812 6.75732 13.6782H5.85645V15.6733ZM14.1621 19H12.8701L10.9805 14.8032V19H9.68848V12.6016H10.9805L12.8745 16.8027V12.6016H14.1621V19ZM19.5498 18.2749C19.3008 18.5444 18.9946 18.748 18.6313 18.8857C18.271 19.0205 17.8755 19.0879 17.4448 19.0879C16.7095 19.0879 16.1382 18.8608 15.731 18.4067C15.3237 17.9497 15.1143 17.2861 15.1025 16.416V15.2646C15.1025 14.3828 15.2944 13.7046 15.6782 13.23C16.0649 12.7524 16.6274 12.5137 17.3657 12.5137C18.0601 12.5137 18.583 12.6851 18.9346 13.0278C19.2891 13.3706 19.4941 13.9082 19.5498 14.6406H18.293C18.2578 14.2334 18.1729 13.9565 18.0381 13.8101C17.9033 13.6606 17.6924 13.5859 17.4053 13.5859C17.0566 13.5859 16.8032 13.7134 16.645 13.9683C16.4868 14.2231 16.4048 14.6289 16.3989 15.1855V16.3457C16.3989 16.9287 16.4854 17.3535 16.6582 17.6201C16.834 17.8838 17.1211 18.0156 17.5195 18.0156C17.7744 18.0156 17.981 17.9644 18.1392 17.8618L18.2534 17.7827V16.6094H17.3481V15.6338H19.5498V18.2749Z" fill="#66390C"/>
</g>
<defs>
<clipPath id="clip0">
<path d="M0 0H24V24H0V0Z" fill="white"/>
</clipPath>
</defs>
</svg>
