<svg width="24" height="24" viewBox="0 0 24 24" fill="none" xmlns="http://www.w3.org/2000/svg">
<g clip-path="url(#clip0)">
<path d="M4 0C2.89545 0 2 0.895447 2 2V22C2 23.1046 2.89543 24 4 24H20C21.1046 24 22 23.1046 22 22V8H16C14.8954 8 14 7.10455 14 6V0H4Z" fill="#FFDB8C"/>
<path d="M14 0L22 8H16C14.8954 8 14 7.10457 14 6V0Z" fill="#D99B2E"/>
<path d="M6.23877 16.75V19H4.94678V12.6016H7.12646C7.75928 12.6016 8.26318 12.7979 8.63818 13.1904C9.01611 13.583 9.20508 14.0928 9.20508 14.7197C9.20508 15.3467 9.01904 15.8418 8.64697 16.2051C8.2749 16.5684 7.75928 16.75 7.1001 16.75H6.23877ZM6.23877 15.6733H7.12646C7.37256 15.6733 7.56299 15.5928 7.69775 15.4316C7.83252 15.2705 7.8999 15.0361 7.8999 14.7285C7.8999 14.4092 7.83105 14.1558 7.69336 13.9683C7.55566 13.7778 7.37109 13.6812 7.13965 13.6782H6.23877V15.6733ZM11.3628 16.75V19H10.0708V12.6016H12.2505C12.8833 12.6016 13.3872 12.7979 13.7622 13.1904C14.1401 13.583 14.3291 14.0928 14.3291 14.7197C14.3291 15.3467 14.1431 15.8418 13.771 16.2051C13.3989 16.5684 12.8833 16.75 12.2241 16.75H11.3628ZM11.3628 15.6733H12.2505C12.4966 15.6733 12.687 15.5928 12.8218 15.4316C12.9565 15.2705 13.0239 15.0361 13.0239 14.7285C13.0239 14.4092 12.9551 14.1558 12.8174 13.9683C12.6797 13.7778 12.4951 13.6812 12.2637 13.6782H11.3628V15.6733ZM19.3389 13.6782H17.7568V19H16.4604V13.6782H14.9048V12.6016H19.3389V13.6782Z" fill="#66390C"/>
</g>
<defs>
<clipPath id="clip0">
<path d="M0 0H24V24H0V0Z" fill="white"/>
</clipPath>
</defs>
</svg>
