<svg width="24" height="24" viewBox="0 0 24 24" fill="none" xmlns="http://www.w3.org/2000/svg">
<g clip-path="url(#clip0)">
<path d="M4 0C2.89545 0 2 0.895447 2 2V22C2 23.1046 2.89543 24 4 24H20C21.1046 24 22 23.1046 22 22V8H16C14.8954 8 14 7.10455 14 6V0H4Z" fill="#828D96"/>
<path d="M14 0L22 8H16C14.8954 8 14 7.10457 14 6V0Z" fill="#525D66"/>
<path d="M6.7793 16.6621H6.1377V19H4.8457V12.6016H6.90674C7.5542 12.6016 8.05371 12.77 8.40527 13.1069C8.75977 13.4409 8.93701 13.917 8.93701 14.5352C8.93701 15.3848 8.62793 15.9795 8.00977 16.3193L9.13037 18.9385V19H7.7417L6.7793 16.6621ZM6.1377 15.5854H6.87158C7.12939 15.5854 7.32275 15.5005 7.45166 15.3306C7.58057 15.1577 7.64502 14.9277 7.64502 14.6406C7.64502 13.999 7.39453 13.6782 6.89355 13.6782H6.1377V15.5854ZM12.8789 17.6904H11.1167L10.7739 19H9.40723L11.4067 12.6016H12.5889L14.6016 19H13.2217L12.8789 17.6904ZM11.3979 16.6138H12.5933L11.9956 14.333L11.3979 16.6138ZM17.1416 16.6621H16.5V19H15.208V12.6016H17.269C17.9165 12.6016 18.416 12.77 18.7676 13.1069C19.1221 13.4409 19.2993 13.917 19.2993 14.5352C19.2993 15.3848 18.9902 15.9795 18.3721 16.3193L19.4927 18.9385V19H18.104L17.1416 16.6621ZM16.5 15.5854H17.2339C17.4917 15.5854 17.6851 15.5005 17.814 15.3306C17.9429 15.1577 18.0073 14.9277 18.0073 14.6406C18.0073 13.999 17.7568 13.6782 17.2559 13.6782H16.5V15.5854Z" fill="white"/>
</g>
<defs>
<clipPath id="clip0">
<path d="M0 0H24V24H0V0Z" fill="white"/>
</clipPath>
</defs>
</svg>
