<svg width="24" height="24" viewBox="0 0 24 24" fill="none" xmlns="http://www.w3.org/2000/svg">
<g clip-path="url(#clip0)">
<path d="M4 0C2.89545 0 2 0.895447 2 2V22C2 23.1046 2.89543 24 4 24H20C21.1046 24 22 23.1046 22 22V8H16C14.8954 8 14 7.10455 14 6V0H4Z" fill="#3B95FF"/>
<path d="M14 0L22 8H16C14.8954 8 14 7.10457 14 6V0Z" fill="#085FD9"/>
<path d="M7.48682 16.6621H6.84521V19H5.55322V12.6016H7.61426C8.26172 12.6016 8.76123 12.77 9.11279 13.1069C9.46729 13.4409 9.64453 13.917 9.64453 14.5352C9.64453 15.3848 9.33545 15.9795 8.71729 16.3193L9.83789 18.9385V19H8.44922L7.48682 16.6621ZM6.84521 15.5854H7.5791C7.83691 15.5854 8.03027 15.5005 8.15918 15.3306C8.28809 15.1577 8.35254 14.9277 8.35254 14.6406C8.35254 13.999 8.10205 13.6782 7.60107 13.6782H6.84521V15.5854ZM14.4565 13.6782H12.8745V19H11.5781V13.6782H10.0225V12.6016H14.4565V13.6782ZM18.4995 16.3896H16.4912V19H15.1992V12.6016H18.7412V13.6782H16.4912V15.3174H18.4995V16.3896Z" fill="white"/>
</g>
<defs>
<clipPath id="clip0">
<path d="M0 0H24V24H0V0Z" fill="white"/>
</clipPath>
</defs>
</svg>
