<svg width="24" height="24" viewBox="0 0 24 24" fill="none" xmlns="http://www.w3.org/2000/svg">
<g clip-path="url(#clip0)">
<path d="M4 0C2.89545 0 2 0.895447 2 2V22C2 23.1046 2.89543 24 4 24H20C21.1046 24 22 23.1046 22 22V8H16C14.8954 8 14 7.10455 14 6V0H4Z" fill="#AE93F9"/>
<path d="M14 0L22 8H16C14.8954 8 14 7.10457 14 6V0Z" fill="#8C6EE1"/>
<path d="M7.91748 17.3213C7.91748 17.0605 7.8501 16.8643 7.71533 16.7324C7.5835 16.5977 7.3418 16.4585 6.99023 16.3149C6.34863 16.0718 5.88721 15.7876 5.60596 15.4624C5.32471 15.1343 5.18408 14.7476 5.18408 14.3022C5.18408 13.7632 5.37451 13.3311 5.75537 13.0059C6.13916 12.6777 6.62549 12.5137 7.21436 12.5137C7.60693 12.5137 7.95703 12.5972 8.26465 12.7642C8.57227 12.9282 8.80811 13.1611 8.97217 13.4629C9.13916 13.7646 9.22266 14.1074 9.22266 14.4912H7.93506C7.93506 14.1924 7.87061 13.9653 7.7417 13.8101C7.61572 13.6519 7.43262 13.5728 7.19238 13.5728C6.9668 13.5728 6.79102 13.6401 6.66504 13.7749C6.53906 13.9067 6.47607 14.0854 6.47607 14.311C6.47607 14.4868 6.54639 14.6465 6.68701 14.79C6.82764 14.9307 7.07666 15.0771 7.43408 15.2295C8.05811 15.4551 8.51074 15.7319 8.79199 16.0601C9.07617 16.3882 9.21826 16.8057 9.21826 17.3125C9.21826 17.8691 9.04102 18.3042 8.68652 18.6177C8.33203 18.9312 7.8501 19.0879 7.24072 19.0879C6.82764 19.0879 6.45117 19.0029 6.11133 18.833C5.77148 18.6631 5.50488 18.4199 5.31152 18.1035C5.12109 17.7871 5.02588 17.4136 5.02588 16.9829H6.32227C6.32227 17.3521 6.39404 17.6201 6.5376 17.7871C6.68115 17.9541 6.91553 18.0376 7.24072 18.0376C7.69189 18.0376 7.91748 17.7988 7.91748 17.3213ZM14.5752 16.2974C14.5752 17.355 14.2896 18.124 13.7183 18.6045L14.6016 19.3955L13.7886 20.1426L12.6108 19.0659L12.2725 19.0879C11.5488 19.0879 10.9819 18.8433 10.5718 18.354C10.1646 17.8618 9.95947 17.1821 9.95654 16.3149V15.313C9.95654 14.4341 10.1602 13.7485 10.5674 13.2563C10.9746 12.7612 11.54 12.5137 12.2637 12.5137C12.9697 12.5137 13.5278 12.751 13.938 13.2256C14.3481 13.7002 14.5605 14.3667 14.5752 15.2251V16.2974ZM13.2788 15.3042C13.2788 14.7212 13.1953 14.2905 13.0283 14.0122C12.8613 13.7339 12.6064 13.5947 12.2637 13.5947C11.9209 13.5947 11.6675 13.731 11.5034 14.0034C11.3394 14.2729 11.2544 14.6846 11.2485 15.2383V16.2974C11.2485 16.8833 11.332 17.3154 11.499 17.5938C11.6689 17.8721 11.9268 18.0112 12.2725 18.0112C12.6094 18.0112 12.8599 17.8735 13.0239 17.5981C13.1909 17.3198 13.2759 16.8965 13.2788 16.3281V15.3042ZM16.7988 17.9277H19.0664V19H15.5068V12.6016H16.7988V17.9277Z" fill="white"/>
</g>
<defs>
<clipPath id="clip0">
<path d="M0 0H24V24H0V0Z" fill="white"/>
</clipPath>
</defs>
</svg>
