<svg width="24" height="24" viewBox="0 0 24 24" fill="none" xmlns="http://www.w3.org/2000/svg">
<g clip-path="url(#clip0)">
<path d="M4 0C2.89545 0 2 0.895447 2 2V22C2 23.1046 2.89543 24 4 24H20C21.1046 24 22 23.1046 22 22V8H16C14.8954 8 14 7.10455 14 6V0H4Z" fill="#E3E8ED"/>
<path d="M14 0L22 8H16C14.8954 8 14 7.10457 14 6V0Z" fill="#AFBBC4"/>
<path d="M9.25342 13.6782H7.67139V19H6.375V13.6782H4.81934V12.6016H9.25342V13.6782ZM12 14.7988L12.8613 12.6016H14.3423L12.8394 15.7744L14.3774 19H12.8789L12 16.7632L11.1255 19H9.62695L11.165 15.7744L9.65771 12.6016H11.1387L12 14.7988ZM19.1763 13.6782H17.5942V19H16.2979V13.6782H14.7422V12.6016H19.1763V13.6782Z" fill="#525D66"/>
</g>
<defs>
<clipPath id="clip0">
<path d="M0 0H24V24H0V0Z" fill="white"/>
</clipPath>
</defs>
</svg>
