<svg width="24" height="24" viewBox="0 0 24 24" fill="none" xmlns="http://www.w3.org/2000/svg">
<g clip-path="url(#clip0)">
<path d="M4 0C2.89545 0 2 0.895447 2 2V22C2 23.1046 2.89543 24 4 24H20C21.1046 24 22 23.1046 22 22V8H16C14.8954 8 14 7.10455 14 6V0H4Z" fill="#5DC984"/>
<path d="M14 0L22 8H16C14.8954 8 14 7.10457 14 6V0Z" fill="#269C55"/>
<path d="M7.4165 14.7988L8.27783 12.6016H9.75879L8.25586 15.7744L9.79395 19H8.29541L7.4165 16.7632L6.54199 19H5.04346L6.58154 15.7744L5.07422 12.6016H6.55518L7.4165 14.7988ZM11.7407 17.9277H14.0083V19H10.4487V12.6016H11.7407V17.9277ZM17.458 17.3213C17.458 17.0605 17.3906 16.8643 17.2559 16.7324C17.124 16.5977 16.8823 16.4585 16.5308 16.3149C15.8892 16.0718 15.4277 15.7876 15.1465 15.4624C14.8652 15.1343 14.7246 14.7476 14.7246 14.3022C14.7246 13.7632 14.915 13.3311 15.2959 13.0059C15.6797 12.6777 16.166 12.5137 16.7549 12.5137C17.1475 12.5137 17.4976 12.5972 17.8052 12.7642C18.1128 12.9282 18.3486 13.1611 18.5127 13.4629C18.6797 13.7646 18.7632 14.1074 18.7632 14.4912H17.4756C17.4756 14.1924 17.4111 13.9653 17.2822 13.8101C17.1562 13.6519 16.9731 13.5728 16.7329 13.5728C16.5073 13.5728 16.3315 13.6401 16.2056 13.7749C16.0796 13.9067 16.0166 14.0854 16.0166 14.311C16.0166 14.4868 16.0869 14.6465 16.2275 14.79C16.3682 14.9307 16.6172 15.0771 16.9746 15.2295C17.5986 15.4551 18.0513 15.7319 18.3325 16.0601C18.6167 16.3882 18.7588 16.8057 18.7588 17.3125C18.7588 17.8691 18.5815 18.3042 18.2271 18.6177C17.8726 18.9312 17.3906 19.0879 16.7812 19.0879C16.3682 19.0879 15.9917 19.0029 15.6519 18.833C15.312 18.6631 15.0454 18.4199 14.8521 18.1035C14.6616 17.7871 14.5664 17.4136 14.5664 16.9829H15.8628C15.8628 17.3521 15.9346 17.6201 16.0781 17.7871C16.2217 17.9541 16.4561 18.0376 16.7812 18.0376C17.2324 18.0376 17.458 17.7988 17.458 17.3213Z" fill="white"/>
</g>
<defs>
<clipPath id="clip0">
<path d="M0 0H24V24H0V0Z" fill="white"/>
</clipPath>
</defs>
</svg>
