<svg width="24" height="24" viewBox="0 0 24 24" fill="none" xmlns="http://www.w3.org/2000/svg">
<g clip-path="url(#clip0)">
<path d="M4 0C2.89545 0 2 0.895447 2 2V22C2 23.1046 2.89543 24 4 24H20C21.1046 24 22 23.1046 22 22V8H16C14.8954 8 14 7.10455 14 6V0H4Z" fill="#33B464"/>
<path d="M14 0L22 8H16C14.8954 8 14 7.10457 14 6V0Z" fill="#269C55"/>
<path d="M6.43213 14.7988L7.29346 12.6016H8.77441L7.27148 15.7744L8.80957 19H7.31104L6.43213 16.7632L5.55762 19H4.05908L5.59717 15.7744L4.08984 12.6016H5.5708L6.43213 14.7988ZM11.1519 12.6016L12.3604 17.229L13.5645 12.6016H15.252V19H13.9556V17.2686L14.0742 14.6011L12.7954 19H11.9165L10.6377 14.6011L10.7563 17.2686V19H9.46436V12.6016H11.1519ZM17.5854 17.9277H19.853V19H16.2935V12.6016H17.5854V17.9277Z" fill="white"/>
</g>
<defs>
<clipPath id="clip0">
<path d="M0 0H24V24H0V0Z" fill="white"/>
</clipPath>
</defs>
</svg>
