<svg width="24" height="24" viewBox="0 0 24 24" fill="none" xmlns="http://www.w3.org/2000/svg">
<g clip-path="url(#clip0)">
<path d="M4 0C2.89545 0 2 0.895447 2 2V22C2 23.1046 2.89543 24 4 24H20C21.1046 24 22 23.1046 22 22V8H16C14.8954 8 14 7.10455 14 6V0H4Z" fill="#828D96"/>
<path d="M14 0L22 8H16C14.8954 8 14 7.10457 14 6V0Z" fill="#525D66"/>
<path d="M7.68896 17.9277H10.3257V19H6.17725V18.2222L8.7876 13.6782H6.15088V12.6016H10.2773V13.3618L7.68896 17.9277ZM12.4702 19H11.1782V12.6016H12.4702V19ZM14.8477 16.75V19H13.5557V12.6016H15.7354C16.3682 12.6016 16.8721 12.7979 17.2471 13.1904C17.625 13.583 17.814 14.0928 17.814 14.7197C17.814 15.3467 17.6279 15.8418 17.2559 16.2051C16.8838 16.5684 16.3682 16.75 15.709 16.75H14.8477ZM14.8477 15.6733H15.7354C15.9814 15.6733 16.1719 15.5928 16.3066 15.4316C16.4414 15.2705 16.5088 15.0361 16.5088 14.7285C16.5088 14.4092 16.4399 14.1558 16.3022 13.9683C16.1646 13.7778 15.98 13.6812 15.7485 13.6782H14.8477V15.6733Z" fill="white"/>
</g>
<defs>
<clipPath id="clip0">
<path d="M0 0H24V24H0V0Z" fill="white"/>
</clipPath>
</defs>
</svg>
